<svg width="1363" height="163" viewBox="0 0 1363 163" fill="none" xmlns="http://www.w3.org/2000/svg">
<path d="M0 15C0 6.71573 6.71573 0 15 0H37V163H15C6.71573 163 0 156.284 0 148V15Z" fill="#424242"/>
<rect width="1097" height="163" transform="translate(37)" fill="#F0F0F0"/>
<path d="M101.906 53.9219L94.3945 51.2383V48.0859L104.602 52.375V54.6367L101.906 53.9219ZM94.3945 56.1719L101.918 53.4297L104.602 52.7852V55.0352L94.3945 59.3242V56.1719ZM123.867 58.2578V61H115.277V58.2578H123.867ZM116.414 43.9375V61H112.898V43.9375H116.414ZM131.508 61.2344C130.523 61.2344 129.641 61.0781 128.859 60.7656C128.078 60.4453 127.414 60.0039 126.867 59.4414C126.328 58.8789 125.914 58.2266 125.625 57.4844C125.336 56.7344 125.191 55.9375 125.191 55.0938V54.625C125.191 53.6641 125.328 52.7852 125.602 51.9883C125.875 51.1914 126.266 50.5 126.773 49.9141C127.289 49.3281 127.914 48.8789 128.648 48.5664C129.383 48.2461 130.211 48.0859 131.133 48.0859C132.031 48.0859 132.828 48.2344 133.523 48.5312C134.219 48.8281 134.801 49.25 135.27 49.7969C135.746 50.3438 136.105 51 136.348 51.7656C136.59 52.5234 136.711 53.3672 136.711 54.2969V55.7031H126.633V53.4531H133.395V53.1953C133.395 52.7266 133.309 52.3086 133.137 51.9414C132.973 51.5664 132.723 51.2695 132.387 51.0508C132.051 50.832 131.621 50.7227 131.098 50.7227C130.652 50.7227 130.27 50.8203 129.949 51.0156C129.629 51.2109 129.367 51.4844 129.164 51.8359C128.969 52.1875 128.82 52.6016 128.719 53.0781C128.625 53.5469 128.578 54.0625 128.578 54.625V55.0938C128.578 55.6016 128.648 56.0703 128.789 56.5C128.938 56.9297 129.145 57.3008 129.41 57.6133C129.684 57.9258 130.012 58.168 130.395 58.3398C130.785 58.5117 131.227 58.5977 131.719 58.5977C132.328 58.5977 132.895 58.4805 133.418 58.2461C133.949 58.0039 134.406 57.6406 134.789 57.1562L136.43 58.9375C136.164 59.3203 135.801 59.6875 135.34 60.0391C134.887 60.3906 134.34 60.6797 133.699 60.9062C133.059 61.125 132.328 61.2344 131.508 61.2344ZM145.477 58.1406V52.4922C145.477 52.0859 145.41 51.7383 145.277 51.4492C145.145 51.1523 144.938 50.9219 144.656 50.7578C144.383 50.5938 144.027 50.5117 143.59 50.5117C143.215 50.5117 142.891 50.5781 142.617 50.7109C142.344 50.8359 142.133 51.0195 141.984 51.2617C141.836 51.4961 141.762 51.7734 141.762 52.0938H138.387C138.387 51.5547 138.512 51.043 138.762 50.5586C139.012 50.0742 139.375 49.6484 139.852 49.2812C140.328 48.9062 140.895 48.6133 141.551 48.4023C142.215 48.1914 142.957 48.0859 143.777 48.0859C144.762 48.0859 145.637 48.25 146.402 48.5781C147.168 48.9062 147.77 49.3984 148.207 50.0547C148.652 50.7109 148.875 51.5312 148.875 52.5156V57.9414C148.875 58.6367 148.918 59.207 149.004 59.6523C149.09 60.0898 149.215 60.4727 149.379 60.8008V61H145.969C145.805 60.6562 145.68 60.2266 145.594 59.7109C145.516 59.1875 145.477 58.6641 145.477 58.1406ZM145.922 53.2773L145.945 55.1875H144.059C143.613 55.1875 143.227 55.2383 142.898 55.3398C142.57 55.4414 142.301 55.5859 142.09 55.7734C141.879 55.9531 141.723 56.1641 141.621 56.4062C141.527 56.6484 141.48 56.9141 141.48 57.2031C141.48 57.4922 141.547 57.7539 141.68 57.9883C141.812 58.2148 142.004 58.3945 142.254 58.5273C142.504 58.6523 142.797 58.7148 143.133 58.7148C143.641 58.7148 144.082 58.6133 144.457 58.4102C144.832 58.207 145.121 57.957 145.324 57.6602C145.535 57.3633 145.645 57.082 145.652 56.8164L146.543 58.2461C146.418 58.5664 146.246 58.8984 146.027 59.2422C145.816 59.5859 145.547 59.9102 145.219 60.2148C144.891 60.5117 144.496 60.7578 144.035 60.9531C143.574 61.1406 143.027 61.2344 142.395 61.2344C141.59 61.2344 140.859 61.0742 140.203 60.7539C139.555 60.4258 139.039 59.9766 138.656 59.4062C138.281 58.8281 138.094 58.1719 138.094 57.4375C138.094 56.7734 138.219 56.1836 138.469 55.668C138.719 55.1523 139.086 54.7188 139.57 54.3672C140.062 54.0078 140.676 53.7383 141.41 53.5586C142.145 53.3711 142.996 53.2773 143.965 53.2773H145.922ZM154.852 51.0859V61H151.477V48.3203H154.652L154.852 51.0859ZM158.672 48.2383L158.613 51.3672C158.449 51.3438 158.25 51.3242 158.016 51.3086C157.789 51.2852 157.582 51.2734 157.395 51.2734C156.918 51.2734 156.504 51.3359 156.152 51.4609C155.809 51.5781 155.52 51.7539 155.285 51.9883C155.059 52.2227 154.887 52.5078 154.77 52.8438C154.66 53.1797 154.598 53.5625 154.582 53.9922L153.902 53.7812C153.902 52.9609 153.984 52.207 154.148 51.5195C154.312 50.8242 154.551 50.2188 154.863 49.7031C155.184 49.1875 155.574 48.7891 156.035 48.5078C156.496 48.2266 157.023 48.0859 157.617 48.0859C157.805 48.0859 157.996 48.1016 158.191 48.1328C158.387 48.1562 158.547 48.1914 158.672 48.2383ZM163.57 51.0273V61H160.195V48.3203H163.359L163.57 51.0273ZM163.078 54.2148H162.164C162.164 53.2773 162.285 52.4336 162.527 51.6836C162.77 50.9258 163.109 50.2812 163.547 49.75C163.984 49.2109 164.504 48.8008 165.105 48.5195C165.715 48.2305 166.395 48.0859 167.145 48.0859C167.738 48.0859 168.281 48.1719 168.773 48.3438C169.266 48.5156 169.688 48.7891 170.039 49.1641C170.398 49.5391 170.672 50.0352 170.859 50.6523C171.055 51.2695 171.152 52.0234 171.152 52.9141V61H167.754V52.9023C167.754 52.3398 167.676 51.9023 167.52 51.5898C167.363 51.2773 167.133 51.0586 166.828 50.9336C166.531 50.8008 166.164 50.7344 165.727 50.7344C165.273 50.7344 164.879 50.8242 164.543 51.0039C164.215 51.1836 163.941 51.4336 163.723 51.7539C163.512 52.0664 163.352 52.4336 163.242 52.8555C163.133 53.2773 163.078 53.7305 163.078 54.2148ZM180.082 57.4375L184.102 43.9375H188.016L182.074 61H179.496L180.082 57.4375ZM176.379 43.9375L180.387 57.4375L180.996 61H178.395L172.488 43.9375H176.379ZM194.719 61.2344C193.734 61.2344 192.852 61.0781 192.07 60.7656C191.289 60.4453 190.625 60.0039 190.078 59.4414C189.539 58.8789 189.125 58.2266 188.836 57.4844C188.547 56.7344 188.402 55.9375 188.402 55.0938V54.625C188.402 53.6641 188.539 52.7852 188.812 51.9883C189.086 51.1914 189.477 50.5 189.984 49.9141C190.5 49.3281 191.125 48.8789 191.859 48.5664C192.594 48.2461 193.422 48.0859 194.344 48.0859C195.242 48.0859 196.039 48.2344 196.734 48.5312C197.43 48.8281 198.012 49.25 198.48 49.7969C198.957 50.3438 199.316 51 199.559 51.7656C199.801 52.5234 199.922 53.3672 199.922 54.2969V55.7031H189.844V53.4531H196.605V53.1953C196.605 52.7266 196.52 52.3086 196.348 51.9414C196.184 51.5664 195.934 51.2695 195.598 51.0508C195.262 50.832 194.832 50.7227 194.309 50.7227C193.863 50.7227 193.48 50.8203 193.16 51.0156C192.84 51.2109 192.578 51.4844 192.375 51.8359C192.18 52.1875 192.031 52.6016 191.93 53.0781C191.836 53.5469 191.789 54.0625 191.789 54.625V55.0938C191.789 55.6016 191.859 56.0703 192 56.5C192.148 56.9297 192.355 57.3008 192.621 57.6133C192.895 57.9258 193.223 58.168 193.605 58.3398C193.996 58.5117 194.438 58.5977 194.93 58.5977C195.539 58.5977 196.105 58.4805 196.629 58.2461C197.16 58.0039 197.617 57.6406 198 57.1562L199.641 58.9375C199.375 59.3203 199.012 59.6875 198.551 60.0391C198.098 60.3906 197.551 60.6797 196.91 60.9062C196.27 61.125 195.539 61.2344 194.719 61.2344ZM205.148 51.0273V61H201.773V48.3203H204.938L205.148 51.0273ZM204.656 54.2148H203.742C203.742 53.2773 203.863 52.4336 204.105 51.6836C204.348 50.9258 204.688 50.2812 205.125 49.75C205.562 49.2109 206.082 48.8008 206.684 48.5195C207.293 48.2305 207.973 48.0859 208.723 48.0859C209.316 48.0859 209.859 48.1719 210.352 48.3438C210.844 48.5156 211.266 48.7891 211.617 49.1641C211.977 49.5391 212.25 50.0352 212.438 50.6523C212.633 51.2695 212.73 52.0234 212.73 52.9141V61H209.332V52.9023C209.332 52.3398 209.254 51.9023 209.098 51.5898C208.941 51.2773 208.711 51.0586 208.406 50.9336C208.109 50.8008 207.742 50.7344 207.305 50.7344C206.852 50.7344 206.457 50.8242 206.121 51.0039C205.793 51.1836 205.52 51.4336 205.301 51.7539C205.09 52.0664 204.93 52.4336 204.82 52.8555C204.711 53.2773 204.656 53.7305 204.656 54.2148ZM221.508 48.3203V50.7109H214.125V48.3203H221.508ZM215.953 45.1914H219.328V57.1797C219.328 57.5469 219.375 57.8281 219.469 58.0234C219.57 58.2188 219.719 58.3555 219.914 58.4336C220.109 58.5039 220.355 58.5391 220.652 58.5391C220.863 58.5391 221.051 58.5312 221.215 58.5156C221.387 58.4922 221.531 58.4688 221.648 58.4453L221.66 60.9297C221.371 61.0234 221.059 61.0977 220.723 61.1523C220.387 61.207 220.016 61.2344 219.609 61.2344C218.867 61.2344 218.219 61.1133 217.664 60.8711C217.117 60.6211 216.695 60.2227 216.398 59.6758C216.102 59.1289 215.953 58.4102 215.953 57.5195V45.1914ZM230.93 57.9648V48.3203H234.305V61H231.129L230.93 57.9648ZM231.305 55.3633L232.301 55.3398C232.301 56.1836 232.203 56.9688 232.008 57.6953C231.812 58.4141 231.52 59.0391 231.129 59.5703C230.738 60.0938 230.246 60.5039 229.652 60.8008C229.059 61.0898 228.359 61.2344 227.555 61.2344C226.938 61.2344 226.367 61.1484 225.844 60.9766C225.328 60.7969 224.883 60.5195 224.508 60.1445C224.141 59.7617 223.852 59.2734 223.641 58.6797C223.438 58.0781 223.336 57.3555 223.336 56.5117V48.3203H226.711V56.5352C226.711 56.9102 226.754 57.2266 226.84 57.4844C226.934 57.7422 227.062 57.9531 227.227 58.1172C227.391 58.2812 227.582 58.3984 227.801 58.4688C228.027 58.5391 228.277 58.5742 228.551 58.5742C229.246 58.5742 229.793 58.4336 230.191 58.1523C230.598 57.8711 230.883 57.4883 231.047 57.0039C231.219 56.5117 231.305 55.9648 231.305 55.3633ZM240.258 51.0859V61H236.883V48.3203H240.059L240.258 51.0859ZM244.078 48.2383L244.02 51.3672C243.855 51.3438 243.656 51.3242 243.422 51.3086C243.195 51.2852 242.988 51.2734 242.801 51.2734C242.324 51.2734 241.91 51.3359 241.559 51.4609C241.215 51.5781 240.926 51.7539 240.691 51.9883C240.465 52.2227 240.293 52.5078 240.176 52.8438C240.066 53.1797 240.004 53.5625 239.988 53.9922L239.309 53.7812C239.309 52.9609 239.391 52.207 239.555 51.5195C239.719 50.8242 239.957 50.2188 240.27 49.7031C240.59 49.1875 240.98 48.7891 241.441 48.5078C241.902 48.2266 242.43 48.0859 243.023 48.0859C243.211 48.0859 243.402 48.1016 243.598 48.1328C243.793 48.1562 243.953 48.1914 244.078 48.2383ZM251.273 61.2344C250.289 61.2344 249.406 61.0781 248.625 60.7656C247.844 60.4453 247.18 60.0039 246.633 59.4414C246.094 58.8789 245.68 58.2266 245.391 57.4844C245.102 56.7344 244.957 55.9375 244.957 55.0938V54.625C244.957 53.6641 245.094 52.7852 245.367 51.9883C245.641 51.1914 246.031 50.5 246.539 49.9141C247.055 49.3281 247.68 48.8789 248.414 48.5664C249.148 48.2461 249.977 48.0859 250.898 48.0859C251.797 48.0859 252.594 48.2344 253.289 48.5312C253.984 48.8281 254.566 49.25 255.035 49.7969C255.512 50.3438 255.871 51 256.113 51.7656C256.355 52.5234 256.477 53.3672 256.477 54.2969V55.7031H246.398V53.4531H253.16V53.1953C253.16 52.7266 253.074 52.3086 252.902 51.9414C252.738 51.5664 252.488 51.2695 252.152 51.0508C251.816 50.832 251.387 50.7227 250.863 50.7227C250.418 50.7227 250.035 50.8203 249.715 51.0156C249.395 51.2109 249.133 51.4844 248.93 51.8359C248.734 52.1875 248.586 52.6016 248.484 53.0781C248.391 53.5469 248.344 54.0625 248.344 54.625V55.0938C248.344 55.6016 248.414 56.0703 248.555 56.5C248.703 56.9297 248.91 57.3008 249.176 57.6133C249.449 57.9258 249.777 58.168 250.16 58.3398C250.551 58.5117 250.992 58.5977 251.484 58.5977C252.094 58.5977 252.66 58.4805 253.184 58.2461C253.715 58.0039 254.172 57.6406 254.555 57.1562L256.195 58.9375C255.93 59.3203 255.566 59.6875 255.105 60.0391C254.652 60.3906 254.105 60.6797 253.465 60.9062C252.824 61.125 252.094 61.2344 251.273 61.2344ZM265.254 57.4961C265.254 57.2539 265.184 57.0352 265.043 56.8398C264.902 56.6445 264.641 56.4648 264.258 56.3008C263.883 56.1289 263.34 55.9727 262.629 55.832C261.988 55.6914 261.391 55.5156 260.836 55.3047C260.289 55.0859 259.812 54.8242 259.406 54.5195C259.008 54.2148 258.695 53.8555 258.469 53.4414C258.242 53.0195 258.129 52.5391 258.129 52C258.129 51.4688 258.242 50.9688 258.469 50.5C258.703 50.0312 259.035 49.6172 259.465 49.2578C259.902 48.8906 260.434 48.6055 261.059 48.4023C261.691 48.1914 262.402 48.0859 263.191 48.0859C264.293 48.0859 265.238 48.2617 266.027 48.6133C266.824 48.9648 267.434 49.4492 267.855 50.0664C268.285 50.6758 268.5 51.3711 268.5 52.1523H265.125C265.125 51.8242 265.055 51.5312 264.914 51.2734C264.781 51.0078 264.57 50.8008 264.281 50.6523C264 50.4961 263.633 50.418 263.18 50.418C262.805 50.418 262.48 50.4844 262.207 50.6172C261.934 50.7422 261.723 50.9141 261.574 51.1328C261.434 51.3438 261.363 51.5781 261.363 51.8359C261.363 52.0312 261.402 52.207 261.48 52.3633C261.566 52.5117 261.703 52.6484 261.891 52.7734C262.078 52.8984 262.32 53.0156 262.617 53.125C262.922 53.2266 263.297 53.3203 263.742 53.4062C264.656 53.5938 265.473 53.8398 266.191 54.1445C266.91 54.4414 267.48 54.8477 267.902 55.3633C268.324 55.8711 268.535 56.5391 268.535 57.3672C268.535 57.9297 268.41 58.4453 268.16 58.9141C267.91 59.3828 267.551 59.793 267.082 60.1445C266.613 60.4883 266.051 60.7578 265.395 60.9531C264.746 61.1406 264.016 61.2344 263.203 61.2344C262.023 61.2344 261.023 61.0234 260.203 60.6016C259.391 60.1797 258.773 59.6445 258.352 58.9961C257.938 58.3398 257.73 57.668 257.73 56.9805H260.93C260.945 57.4414 261.062 57.8125 261.281 58.0938C261.508 58.375 261.793 58.5781 262.137 58.7031C262.488 58.8281 262.867 58.8906 263.273 58.8906C263.711 58.8906 264.074 58.832 264.363 58.7148C264.652 58.5898 264.871 58.4258 265.02 58.2227C265.176 58.0117 265.254 57.7695 265.254 57.4961Z" fill="#888888"/>
<path d="M106.688 119H99.1172L99.1641 112.672H106.688C108.25 112.672 109.57 112.297 110.648 111.547C111.742 110.797 112.57 109.68 113.133 108.195C113.711 106.695 114 104.852 114 102.664V101.188C114 99.5469 113.836 98.1094 113.508 96.875C113.195 95.625 112.727 94.5859 112.102 93.7578C111.477 92.9141 110.695 92.2812 109.758 91.8594C108.836 91.4375 107.773 91.2266 106.57 91.2266H98.9766V84.875H106.57C108.883 84.875 111 85.2734 112.922 86.0703C114.859 86.8516 116.531 87.9766 117.938 89.4453C119.359 90.8984 120.453 92.625 121.219 94.625C122 96.6094 122.391 98.8125 122.391 101.234V102.664C122.391 105.07 122 107.273 121.219 109.273C120.453 111.273 119.367 113 117.961 114.453C116.555 115.906 114.891 117.031 112.969 117.828C111.062 118.609 108.969 119 106.688 119ZM103.828 84.875V119H95.6016V84.875H103.828ZM138.586 119.469C136.523 119.469 134.68 119.148 133.055 118.508C131.43 117.852 130.055 116.953 128.93 115.812C127.82 114.672 126.969 113.359 126.375 111.875C125.797 110.391 125.508 108.82 125.508 107.164V106.273C125.508 104.414 125.766 102.695 126.281 101.117C126.797 99.5234 127.562 98.1328 128.578 96.9453C129.594 95.7578 130.867 94.8359 132.398 94.1797C133.93 93.5078 135.711 93.1719 137.742 93.1719C139.539 93.1719 141.148 93.4609 142.57 94.0391C143.992 94.6172 145.195 95.4453 146.18 96.5234C147.18 97.6016 147.938 98.9062 148.453 100.438C148.984 101.969 149.25 103.688 149.25 105.594V108.805H128.531V103.859H141.539V103.25C141.555 102.406 141.406 101.688 141.094 101.094C140.797 100.5 140.359 100.047 139.781 99.7344C139.203 99.4219 138.5 99.2656 137.672 99.2656C136.812 99.2656 136.102 99.4531 135.539 99.8281C134.992 100.203 134.562 100.719 134.25 101.375C133.953 102.016 133.742 102.758 133.617 103.602C133.492 104.445 133.43 105.336 133.43 106.273V107.164C133.43 108.102 133.555 108.953 133.805 109.719C134.07 110.484 134.445 111.141 134.93 111.688C135.43 112.219 136.023 112.633 136.711 112.93C137.414 113.227 138.211 113.375 139.102 113.375C140.18 113.375 141.242 113.172 142.289 112.766C143.336 112.359 144.234 111.688 144.984 110.75L148.57 115.016C148.055 115.75 147.32 116.461 146.367 117.148C145.43 117.836 144.305 118.398 142.992 118.836C141.68 119.258 140.211 119.469 138.586 119.469ZM160.43 98.5156V128.75H152.531V93.6406H159.891L160.43 98.5156ZM175.992 106.016V106.508C175.992 108.352 175.781 110.062 175.359 111.641C174.938 113.219 174.312 114.594 173.484 115.766C172.656 116.938 171.625 117.852 170.391 118.508C169.172 119.148 167.758 119.469 166.148 119.469C164.633 119.469 163.328 119.133 162.234 118.461C161.141 117.789 160.227 116.859 159.492 115.672C158.758 114.484 158.164 113.125 157.711 111.594C157.258 110.062 156.898 108.445 156.633 106.742V106.109C156.898 104.281 157.258 102.586 157.711 101.023C158.164 99.4453 158.758 98.0703 159.492 96.8984C160.227 95.7266 161.133 94.8125 162.211 94.1562C163.305 93.5 164.609 93.1719 166.125 93.1719C167.734 93.1719 169.148 93.4766 170.367 94.0859C171.602 94.6953 172.633 95.5703 173.461 96.7109C174.305 97.8359 174.938 99.1875 175.359 100.766C175.781 102.344 175.992 104.094 175.992 106.016ZM168.094 106.508V106.016C168.094 105.031 168.023 104.133 167.883 103.32C167.742 102.492 167.516 101.773 167.203 101.164C166.906 100.555 166.508 100.086 166.008 99.7578C165.508 99.4297 164.891 99.2656 164.156 99.2656C163.312 99.2656 162.602 99.3984 162.023 99.6641C161.461 99.9141 161.008 100.305 160.664 100.836C160.336 101.352 160.102 102 159.961 102.781C159.836 103.547 159.781 104.445 159.797 105.477V107.398C159.766 108.586 159.883 109.633 160.148 110.539C160.414 111.43 160.875 112.125 161.531 112.625C162.188 113.125 163.078 113.375 164.203 113.375C164.953 113.375 165.578 113.203 166.078 112.859C166.578 112.5 166.977 112.008 167.273 111.383C167.57 110.742 167.781 110.008 167.906 109.18C168.031 108.352 168.094 107.461 168.094 106.508ZM187.852 83V119H179.93V83H187.852ZM191.742 106.578V106.086C191.742 104.227 192.008 102.516 192.539 100.953C193.07 99.375 193.852 98.0078 194.883 96.8516C195.914 95.6953 197.188 94.7969 198.703 94.1562C200.219 93.5 201.969 93.1719 203.953 93.1719C205.953 93.1719 207.711 93.5 209.227 94.1562C210.758 94.7969 212.039 95.6953 213.07 96.8516C214.102 98.0078 214.883 99.375 215.414 100.953C215.945 102.516 216.211 104.227 216.211 106.086V106.578C216.211 108.422 215.945 110.133 215.414 111.711C214.883 113.273 214.102 114.641 213.07 115.812C212.039 116.969 210.766 117.867 209.25 118.508C207.734 119.148 205.984 119.469 204 119.469C202.016 119.469 200.258 119.148 198.727 118.508C197.195 117.867 195.914 116.969 194.883 115.812C193.852 114.641 193.07 113.273 192.539 111.711C192.008 110.133 191.742 108.422 191.742 106.578ZM199.641 106.086V106.578C199.641 107.531 199.711 108.422 199.852 109.25C199.992 110.078 200.227 110.805 200.555 111.43C200.883 112.039 201.328 112.516 201.891 112.859C202.453 113.203 203.156 113.375 204 113.375C204.828 113.375 205.516 113.203 206.062 112.859C206.625 112.516 207.07 112.039 207.398 111.43C207.727 110.805 207.961 110.078 208.102 109.25C208.242 108.422 208.312 107.531 208.312 106.578V106.086C208.312 105.164 208.242 104.297 208.102 103.484C207.961 102.656 207.727 101.93 207.398 101.305C207.07 100.664 206.625 100.164 206.062 99.8047C205.5 99.4453 204.797 99.2656 203.953 99.2656C203.125 99.2656 202.43 99.4453 201.867 99.8047C201.32 100.164 200.883 100.664 200.555 101.305C200.227 101.93 199.992 102.656 199.852 103.484C199.711 104.297 199.641 105.164 199.641 106.086ZM227.133 116.023L233.695 93.6406H242.18L231.984 122.773C231.766 123.414 231.477 124.102 231.117 124.836C230.758 125.586 230.266 126.297 229.641 126.969C229.016 127.641 228.211 128.188 227.227 128.609C226.258 129.031 225.055 129.242 223.617 129.242C222.852 129.242 222.289 129.203 221.93 129.125C221.586 129.062 221.055 128.945 220.336 128.773V123.125C220.539 123.125 220.711 123.125 220.852 123.125C221.008 123.125 221.18 123.125 221.367 123.125C222.211 123.125 222.883 123.039 223.383 122.867C223.898 122.695 224.289 122.445 224.555 122.117C224.836 121.789 225.055 121.391 225.211 120.922L227.133 116.023ZM225.469 93.6406L230.461 111.383L231.328 119.75H226.031L217.008 93.6406H225.469ZM252.211 99.0078V119H244.312V93.6406H251.719L252.211 99.0078ZM251.25 105.453L249.445 105.5C249.445 103.719 249.656 102.078 250.078 100.578C250.5 99.0781 251.125 97.7734 251.953 96.6641C252.781 95.5547 253.797 94.6953 255 94.0859C256.219 93.4766 257.625 93.1719 259.219 93.1719C260.328 93.1719 261.336 93.3438 262.242 93.6875C263.148 94.0156 263.93 94.5391 264.586 95.2578C265.242 95.9609 265.742 96.8828 266.086 98.0234C266.445 99.1484 266.625 100.5 266.625 102.078V119H258.727V103.086C258.727 102.008 258.602 101.195 258.352 100.648C258.117 100.102 257.773 99.7344 257.32 99.5469C256.867 99.3594 256.312 99.2656 255.656 99.2656C254.969 99.2656 254.352 99.4219 253.805 99.7344C253.258 100.047 252.789 100.484 252.398 101.047C252.023 101.594 251.734 102.242 251.531 102.992C251.344 103.742 251.25 104.562 251.25 105.453ZM265.734 105.453L263.531 105.5C263.531 103.719 263.727 102.078 264.117 100.578C264.523 99.0781 265.125 97.7734 265.922 96.6641C266.734 95.5547 267.742 94.6953 268.945 94.0859C270.148 93.4766 271.547 93.1719 273.141 93.1719C274.297 93.1719 275.359 93.3438 276.328 93.6875C277.297 94.0312 278.133 94.5859 278.836 95.3516C279.539 96.1172 280.086 97.1328 280.477 98.3984C280.867 99.6484 281.062 101.195 281.062 103.039V119H273.141V103.039C273.141 101.992 273.016 101.203 272.766 100.672C272.531 100.125 272.188 99.7578 271.734 99.5703C271.281 99.3672 270.742 99.2656 270.117 99.2656C269.367 99.2656 268.719 99.4219 268.172 99.7344C267.625 100.047 267.164 100.484 266.789 101.047C266.43 101.594 266.164 102.242 265.992 102.992C265.82 103.742 265.734 104.562 265.734 105.453ZM297.867 119.469C295.805 119.469 293.961 119.148 292.336 118.508C290.711 117.852 289.336 116.953 288.211 115.812C287.102 114.672 286.25 113.359 285.656 111.875C285.078 110.391 284.789 108.82 284.789 107.164V106.273C284.789 104.414 285.047 102.695 285.562 101.117C286.078 99.5234 286.844 98.1328 287.859 96.9453C288.875 95.7578 290.148 94.8359 291.68 94.1797C293.211 93.5078 294.992 93.1719 297.023 93.1719C298.82 93.1719 300.43 93.4609 301.852 94.0391C303.273 94.6172 304.477 95.4453 305.461 96.5234C306.461 97.6016 307.219 98.9062 307.734 100.438C308.266 101.969 308.531 103.688 308.531 105.594V108.805H287.812V103.859H300.82V103.25C300.836 102.406 300.688 101.688 300.375 101.094C300.078 100.5 299.641 100.047 299.062 99.7344C298.484 99.4219 297.781 99.2656 296.953 99.2656C296.094 99.2656 295.383 99.4531 294.82 99.8281C294.273 100.203 293.844 100.719 293.531 101.375C293.234 102.016 293.023 102.758 292.898 103.602C292.773 104.445 292.711 105.336 292.711 106.273V107.164C292.711 108.102 292.836 108.953 293.086 109.719C293.352 110.484 293.727 111.141 294.211 111.688C294.711 112.219 295.305 112.633 295.992 112.93C296.695 113.227 297.492 113.375 298.383 113.375C299.461 113.375 300.523 113.172 301.57 112.766C302.617 112.359 303.516 111.688 304.266 110.75L307.852 115.016C307.336 115.75 306.602 116.461 305.648 117.148C304.711 117.836 303.586 118.398 302.273 118.836C300.961 119.258 299.492 119.469 297.867 119.469ZM319.5 99.0547V119H311.602V93.6406H319.008L319.5 99.0547ZM318.562 105.453L316.711 105.5C316.711 103.562 316.945 101.836 317.414 100.32C317.883 98.7891 318.547 97.4922 319.406 96.4297C320.266 95.3672 321.289 94.5625 322.477 94.0156C323.68 93.4531 325.016 93.1719 326.484 93.1719C327.656 93.1719 328.727 93.3438 329.695 93.6875C330.68 94.0312 331.523 94.5859 332.227 95.3516C332.945 96.1172 333.492 97.1328 333.867 98.3984C334.258 99.6484 334.453 101.195 334.453 103.039V119H326.508V103.016C326.508 102 326.367 101.227 326.086 100.695C325.805 100.148 325.398 99.7734 324.867 99.5703C324.336 99.3672 323.688 99.2656 322.922 99.2656C322.109 99.2656 321.422 99.4219 320.859 99.7344C320.297 100.047 319.844 100.484 319.5 101.047C319.172 101.594 318.93 102.242 318.773 102.992C318.633 103.742 318.562 104.562 318.562 105.453ZM352.195 93.6406V99.125H336.914V93.6406H352.195ZM340.125 87.3359H348.023V110.727C348.023 111.398 348.102 111.922 348.258 112.297C348.414 112.656 348.68 112.914 349.055 113.07C349.445 113.211 349.961 113.281 350.602 113.281C351.055 113.281 351.43 113.273 351.727 113.258C352.023 113.227 352.305 113.188 352.57 113.141V118.789C351.898 119.008 351.195 119.172 350.461 119.281C349.727 119.406 348.945 119.469 348.117 119.469C346.43 119.469 344.984 119.203 343.781 118.672C342.594 118.141 341.688 117.305 341.062 116.164C340.438 115.023 340.125 113.539 340.125 111.711V87.3359Z" fill="black"/>
<path d="M1134 0H1348C1356.28 0 1363 6.71573 1363 15V148C1363 156.284 1356.28 163 1348 163H1134V0Z" fill="#1EA17F"/>
<path d="M1212.5 117.5L1212.5 45.5L1284.5 45.5L1284.5 117.5L1212.5 117.5Z" fill="white" fill-opacity="0.01"/>
<path d="M1221.5 81.5125L1221.5 108.5L1275.5 108.5L1275.5 81.5" stroke="white" stroke-width="7.24" stroke-linecap="round" stroke-linejoin="round"/>
<path d="M1262 68L1248.5 54.5L1235 68" stroke="white" stroke-width="7.24" stroke-linecap="round" stroke-linejoin="round"/>
<path d="M1248.49 93.4999L1248.49 54.5" stroke="white" stroke-width="7.24" stroke-linecap="round" stroke-linejoin="round"/>
</svg>
