<svg width="1363" height="163" viewBox="0 0 1363 163" fill="none" xmlns="http://www.w3.org/2000/svg">
<path d="M0 15C0 6.71573 6.71573 0 15 0H37V163H15C6.71573 163 0 156.284 0 148V15Z" fill="#424242"/>
<rect width="1097" height="163" transform="translate(37)" fill="#F0F0F0"/>
<path d="M101.906 53.9219L94.3945 51.2383V48.0859L104.602 52.375V54.6367L101.906 53.9219ZM94.3945 56.1719L101.918 53.4297L104.602 52.7852V55.0352L94.3945 59.3242V56.1719ZM123.867 58.2578V61H115.277V58.2578H123.867ZM116.414 43.9375V61H112.898V43.9375H116.414ZM131.508 61.2344C130.523 61.2344 129.641 61.0781 128.859 60.7656C128.078 60.4453 127.414 60.0039 126.867 59.4414C126.328 58.8789 125.914 58.2266 125.625 57.4844C125.336 56.7344 125.191 55.9375 125.191 55.0938V54.625C125.191 53.6641 125.328 52.7852 125.602 51.9883C125.875 51.1914 126.266 50.5 126.773 49.9141C127.289 49.3281 127.914 48.8789 128.648 48.5664C129.383 48.2461 130.211 48.0859 131.133 48.0859C132.031 48.0859 132.828 48.2344 133.523 48.5312C134.219 48.8281 134.801 49.25 135.27 49.7969C135.746 50.3438 136.105 51 136.348 51.7656C136.59 52.5234 136.711 53.3672 136.711 54.2969V55.7031H126.633V53.4531H133.395V53.1953C133.395 52.7266 133.309 52.3086 133.137 51.9414C132.973 51.5664 132.723 51.2695 132.387 51.0508C132.051 50.832 131.621 50.7227 131.098 50.7227C130.652 50.7227 130.27 50.8203 129.949 51.0156C129.629 51.2109 129.367 51.4844 129.164 51.8359C128.969 52.1875 128.82 52.6016 128.719 53.0781C128.625 53.5469 128.578 54.0625 128.578 54.625V55.0938C128.578 55.6016 128.648 56.0703 128.789 56.5C128.938 56.9297 129.145 57.3008 129.41 57.6133C129.684 57.9258 130.012 58.168 130.395 58.3398C130.785 58.5117 131.227 58.5977 131.719 58.5977C132.328 58.5977 132.895 58.4805 133.418 58.2461C133.949 58.0039 134.406 57.6406 134.789 57.1562L136.43 58.9375C136.164 59.3203 135.801 59.6875 135.34 60.0391C134.887 60.3906 134.34 60.6797 133.699 60.9062C133.059 61.125 132.328 61.2344 131.508 61.2344ZM145.477 58.1406V52.4922C145.477 52.0859 145.41 51.7383 145.277 51.4492C145.145 51.1523 144.938 50.9219 144.656 50.7578C144.383 50.5938 144.027 50.5117 143.59 50.5117C143.215 50.5117 142.891 50.5781 142.617 50.7109C142.344 50.8359 142.133 51.0195 141.984 51.2617C141.836 51.4961 141.762 51.7734 141.762 52.0938H138.387C138.387 51.5547 138.512 51.043 138.762 50.5586C139.012 50.0742 139.375 49.6484 139.852 49.2812C140.328 48.9062 140.895 48.6133 141.551 48.4023C142.215 48.1914 142.957 48.0859 143.777 48.0859C144.762 48.0859 145.637 48.25 146.402 48.5781C147.168 48.9062 147.77 49.3984 148.207 50.0547C148.652 50.7109 148.875 51.5312 148.875 52.5156V57.9414C148.875 58.6367 148.918 59.207 149.004 59.6523C149.09 60.0898 149.215 60.4727 149.379 60.8008V61H145.969C145.805 60.6562 145.68 60.2266 145.594 59.7109C145.516 59.1875 145.477 58.6641 145.477 58.1406ZM145.922 53.2773L145.945 55.1875H144.059C143.613 55.1875 143.227 55.2383 142.898 55.3398C142.57 55.4414 142.301 55.5859 142.09 55.7734C141.879 55.9531 141.723 56.1641 141.621 56.4062C141.527 56.6484 141.48 56.9141 141.48 57.2031C141.48 57.4922 141.547 57.7539 141.68 57.9883C141.812 58.2148 142.004 58.3945 142.254 58.5273C142.504 58.6523 142.797 58.7148 143.133 58.7148C143.641 58.7148 144.082 58.6133 144.457 58.4102C144.832 58.207 145.121 57.957 145.324 57.6602C145.535 57.3633 145.645 57.082 145.652 56.8164L146.543 58.2461C146.418 58.5664 146.246 58.8984 146.027 59.2422C145.816 59.5859 145.547 59.9102 145.219 60.2148C144.891 60.5117 144.496 60.7578 144.035 60.9531C143.574 61.1406 143.027 61.2344 142.395 61.2344C141.59 61.2344 140.859 61.0742 140.203 60.7539C139.555 60.4258 139.039 59.9766 138.656 59.4062C138.281 58.8281 138.094 58.1719 138.094 57.4375C138.094 56.7734 138.219 56.1836 138.469 55.668C138.719 55.1523 139.086 54.7188 139.57 54.3672C140.062 54.0078 140.676 53.7383 141.41 53.5586C142.145 53.3711 142.996 53.2773 143.965 53.2773H145.922ZM154.852 51.0859V61H151.477V48.3203H154.652L154.852 51.0859ZM158.672 48.2383L158.613 51.3672C158.449 51.3438 158.25 51.3242 158.016 51.3086C157.789 51.2852 157.582 51.2734 157.395 51.2734C156.918 51.2734 156.504 51.3359 156.152 51.4609C155.809 51.5781 155.52 51.7539 155.285 51.9883C155.059 52.2227 154.887 52.5078 154.77 52.8438C154.66 53.1797 154.598 53.5625 154.582 53.9922L153.902 53.7812C153.902 52.9609 153.984 52.207 154.148 51.5195C154.312 50.8242 154.551 50.2188 154.863 49.7031C155.184 49.1875 155.574 48.7891 156.035 48.5078C156.496 48.2266 157.023 48.0859 157.617 48.0859C157.805 48.0859 157.996 48.1016 158.191 48.1328C158.387 48.1562 158.547 48.1914 158.672 48.2383ZM163.57 51.0273V61H160.195V48.3203H163.359L163.57 51.0273ZM163.078 54.2148H162.164C162.164 53.2773 162.285 52.4336 162.527 51.6836C162.77 50.9258 163.109 50.2812 163.547 49.75C163.984 49.2109 164.504 48.8008 165.105 48.5195C165.715 48.2305 166.395 48.0859 167.145 48.0859C167.738 48.0859 168.281 48.1719 168.773 48.3438C169.266 48.5156 169.688 48.7891 170.039 49.1641C170.398 49.5391 170.672 50.0352 170.859 50.6523C171.055 51.2695 171.152 52.0234 171.152 52.9141V61H167.754V52.9023C167.754 52.3398 167.676 51.9023 167.52 51.5898C167.363 51.2773 167.133 51.0586 166.828 50.9336C166.531 50.8008 166.164 50.7344 165.727 50.7344C165.273 50.7344 164.879 50.8242 164.543 51.0039C164.215 51.1836 163.941 51.4336 163.723 51.7539C163.512 52.0664 163.352 52.4336 163.242 52.8555C163.133 53.2773 163.078 53.7305 163.078 54.2148ZM180.082 57.4375L184.102 43.9375H188.016L182.074 61H179.496L180.082 57.4375ZM176.379 43.9375L180.387 57.4375L180.996 61H178.395L172.488 43.9375H176.379ZM194.719 61.2344C193.734 61.2344 192.852 61.0781 192.07 60.7656C191.289 60.4453 190.625 60.0039 190.078 59.4414C189.539 58.8789 189.125 58.2266 188.836 57.4844C188.547 56.7344 188.402 55.9375 188.402 55.0938V54.625C188.402 53.6641 188.539 52.7852 188.812 51.9883C189.086 51.1914 189.477 50.5 189.984 49.9141C190.5 49.3281 191.125 48.8789 191.859 48.5664C192.594 48.2461 193.422 48.0859 194.344 48.0859C195.242 48.0859 196.039 48.2344 196.734 48.5312C197.43 48.8281 198.012 49.25 198.48 49.7969C198.957 50.3438 199.316 51 199.559 51.7656C199.801 52.5234 199.922 53.3672 199.922 54.2969V55.7031H189.844V53.4531H196.605V53.1953C196.605 52.7266 196.52 52.3086 196.348 51.9414C196.184 51.5664 195.934 51.2695 195.598 51.0508C195.262 50.832 194.832 50.7227 194.309 50.7227C193.863 50.7227 193.48 50.8203 193.16 51.0156C192.84 51.2109 192.578 51.4844 192.375 51.8359C192.18 52.1875 192.031 52.6016 191.93 53.0781C191.836 53.5469 191.789 54.0625 191.789 54.625V55.0938C191.789 55.6016 191.859 56.0703 192 56.5C192.148 56.9297 192.355 57.3008 192.621 57.6133C192.895 57.9258 193.223 58.168 193.605 58.3398C193.996 58.5117 194.438 58.5977 194.93 58.5977C195.539 58.5977 196.105 58.4805 196.629 58.2461C197.16 58.0039 197.617 57.6406 198 57.1562L199.641 58.9375C199.375 59.3203 199.012 59.6875 198.551 60.0391C198.098 60.3906 197.551 60.6797 196.91 60.9062C196.27 61.125 195.539 61.2344 194.719 61.2344ZM205.148 51.0273V61H201.773V48.3203H204.938L205.148 51.0273ZM204.656 54.2148H203.742C203.742 53.2773 203.863 52.4336 204.105 51.6836C204.348 50.9258 204.688 50.2812 205.125 49.75C205.562 49.2109 206.082 48.8008 206.684 48.5195C207.293 48.2305 207.973 48.0859 208.723 48.0859C209.316 48.0859 209.859 48.1719 210.352 48.3438C210.844 48.5156 211.266 48.7891 211.617 49.1641C211.977 49.5391 212.25 50.0352 212.438 50.6523C212.633 51.2695 212.73 52.0234 212.73 52.9141V61H209.332V52.9023C209.332 52.3398 209.254 51.9023 209.098 51.5898C208.941 51.2773 208.711 51.0586 208.406 50.9336C208.109 50.8008 207.742 50.7344 207.305 50.7344C206.852 50.7344 206.457 50.8242 206.121 51.0039C205.793 51.1836 205.52 51.4336 205.301 51.7539C205.09 52.0664 204.93 52.4336 204.82 52.8555C204.711 53.2773 204.656 53.7305 204.656 54.2148ZM221.508 48.3203V50.7109H214.125V48.3203H221.508ZM215.953 45.1914H219.328V57.1797C219.328 57.5469 219.375 57.8281 219.469 58.0234C219.57 58.2188 219.719 58.3555 219.914 58.4336C220.109 58.5039 220.355 58.5391 220.652 58.5391C220.863 58.5391 221.051 58.5312 221.215 58.5156C221.387 58.4922 221.531 58.4688 221.648 58.4453L221.66 60.9297C221.371 61.0234 221.059 61.0977 220.723 61.1523C220.387 61.207 220.016 61.2344 219.609 61.2344C218.867 61.2344 218.219 61.1133 217.664 60.8711C217.117 60.6211 216.695 60.2227 216.398 59.6758C216.102 59.1289 215.953 58.4102 215.953 57.5195V45.1914ZM230.93 57.9648V48.3203H234.305V61H231.129L230.93 57.9648ZM231.305 55.3633L232.301 55.3398C232.301 56.1836 232.203 56.9688 232.008 57.6953C231.812 58.4141 231.52 59.0391 231.129 59.5703C230.738 60.0938 230.246 60.5039 229.652 60.8008C229.059 61.0898 228.359 61.2344 227.555 61.2344C226.938 61.2344 226.367 61.1484 225.844 60.9766C225.328 60.7969 224.883 60.5195 224.508 60.1445C224.141 59.7617 223.852 59.2734 223.641 58.6797C223.438 58.0781 223.336 57.3555 223.336 56.5117V48.3203H226.711V56.5352C226.711 56.9102 226.754 57.2266 226.84 57.4844C226.934 57.7422 227.062 57.9531 227.227 58.1172C227.391 58.2812 227.582 58.3984 227.801 58.4688C228.027 58.5391 228.277 58.5742 228.551 58.5742C229.246 58.5742 229.793 58.4336 230.191 58.1523C230.598 57.8711 230.883 57.4883 231.047 57.0039C231.219 56.5117 231.305 55.9648 231.305 55.3633ZM240.258 51.0859V61H236.883V48.3203H240.059L240.258 51.0859ZM244.078 48.2383L244.02 51.3672C243.855 51.3438 243.656 51.3242 243.422 51.3086C243.195 51.2852 242.988 51.2734 242.801 51.2734C242.324 51.2734 241.91 51.3359 241.559 51.4609C241.215 51.5781 240.926 51.7539 240.691 51.9883C240.465 52.2227 240.293 52.5078 240.176 52.8438C240.066 53.1797 240.004 53.5625 239.988 53.9922L239.309 53.7812C239.309 52.9609 239.391 52.207 239.555 51.5195C239.719 50.8242 239.957 50.2188 240.27 49.7031C240.59 49.1875 240.98 48.7891 241.441 48.5078C241.902 48.2266 242.43 48.0859 243.023 48.0859C243.211 48.0859 243.402 48.1016 243.598 48.1328C243.793 48.1562 243.953 48.1914 244.078 48.2383ZM251.273 61.2344C250.289 61.2344 249.406 61.0781 248.625 60.7656C247.844 60.4453 247.18 60.0039 246.633 59.4414C246.094 58.8789 245.68 58.2266 245.391 57.4844C245.102 56.7344 244.957 55.9375 244.957 55.0938V54.625C244.957 53.6641 245.094 52.7852 245.367 51.9883C245.641 51.1914 246.031 50.5 246.539 49.9141C247.055 49.3281 247.68 48.8789 248.414 48.5664C249.148 48.2461 249.977 48.0859 250.898 48.0859C251.797 48.0859 252.594 48.2344 253.289 48.5312C253.984 48.8281 254.566 49.25 255.035 49.7969C255.512 50.3438 255.871 51 256.113 51.7656C256.355 52.5234 256.477 53.3672 256.477 54.2969V55.7031H246.398V53.4531H253.16V53.1953C253.16 52.7266 253.074 52.3086 252.902 51.9414C252.738 51.5664 252.488 51.2695 252.152 51.0508C251.816 50.832 251.387 50.7227 250.863 50.7227C250.418 50.7227 250.035 50.8203 249.715 51.0156C249.395 51.2109 249.133 51.4844 248.93 51.8359C248.734 52.1875 248.586 52.6016 248.484 53.0781C248.391 53.5469 248.344 54.0625 248.344 54.625V55.0938C248.344 55.6016 248.414 56.0703 248.555 56.5C248.703 56.9297 248.91 57.3008 249.176 57.6133C249.449 57.9258 249.777 58.168 250.16 58.3398C250.551 58.5117 250.992 58.5977 251.484 58.5977C252.094 58.5977 252.66 58.4805 253.184 58.2461C253.715 58.0039 254.172 57.6406 254.555 57.1562L256.195 58.9375C255.93 59.3203 255.566 59.6875 255.105 60.0391C254.652 60.3906 254.105 60.6797 253.465 60.9062C252.824 61.125 252.094 61.2344 251.273 61.2344ZM265.254 57.4961C265.254 57.2539 265.184 57.0352 265.043 56.8398C264.902 56.6445 264.641 56.4648 264.258 56.3008C263.883 56.1289 263.34 55.9727 262.629 55.832C261.988 55.6914 261.391 55.5156 260.836 55.3047C260.289 55.0859 259.812 54.8242 259.406 54.5195C259.008 54.2148 258.695 53.8555 258.469 53.4414C258.242 53.0195 258.129 52.5391 258.129 52C258.129 51.4688 258.242 50.9688 258.469 50.5C258.703 50.0312 259.035 49.6172 259.465 49.2578C259.902 48.8906 260.434 48.6055 261.059 48.4023C261.691 48.1914 262.402 48.0859 263.191 48.0859C264.293 48.0859 265.238 48.2617 266.027 48.6133C266.824 48.9648 267.434 49.4492 267.855 50.0664C268.285 50.6758 268.5 51.3711 268.5 52.1523H265.125C265.125 51.8242 265.055 51.5312 264.914 51.2734C264.781 51.0078 264.57 50.8008 264.281 50.6523C264 50.4961 263.633 50.418 263.18 50.418C262.805 50.418 262.48 50.4844 262.207 50.6172C261.934 50.7422 261.723 50.9141 261.574 51.1328C261.434 51.3438 261.363 51.5781 261.363 51.8359C261.363 52.0312 261.402 52.207 261.48 52.3633C261.566 52.5117 261.703 52.6484 261.891 52.7734C262.078 52.8984 262.32 53.0156 262.617 53.125C262.922 53.2266 263.297 53.3203 263.742 53.4062C264.656 53.5938 265.473 53.8398 266.191 54.1445C266.91 54.4414 267.48 54.8477 267.902 55.3633C268.324 55.8711 268.535 56.5391 268.535 57.3672C268.535 57.9297 268.41 58.4453 268.16 58.9141C267.91 59.3828 267.551 59.793 267.082 60.1445C266.613 60.4883 266.051 60.7578 265.395 60.9531C264.746 61.1406 264.016 61.2344 263.203 61.2344C262.023 61.2344 261.023 61.0234 260.203 60.6016C259.391 60.1797 258.773 59.6445 258.352 58.9961C257.938 58.3398 257.73 57.668 257.73 56.9805H260.93C260.945 57.4414 261.062 57.8125 261.281 58.0938C261.508 58.375 261.793 58.5781 262.137 58.7031C262.488 58.8281 262.867 58.8906 263.273 58.8906C263.711 58.8906 264.074 58.832 264.363 58.7148C264.652 58.5898 264.871 58.4258 265.02 58.2227C265.176 58.0117 265.254 57.7695 265.254 57.4961Z" fill="#888888"/>
<path d="M110.062 92.0469L101.742 119H92.9062L105.445 84.875H111.047L110.062 92.0469ZM116.953 119L108.609 92.0469L107.531 84.875H113.203L125.812 119H116.953ZM116.625 106.273V112.625H99.1172V106.273H116.625ZM137.062 84.875V119H128.859V84.875H137.062ZM169.266 92.0469L160.945 119H152.109L164.648 84.875H170.25L169.266 92.0469ZM176.156 119L167.812 92.0469L166.734 84.875H172.406L185.016 119H176.156ZM175.828 106.273V112.625H158.32V106.273H175.828ZM203.086 93.6406H210.258V118.016C210.258 120.359 209.719 122.344 208.641 123.969C207.562 125.609 206.055 126.852 204.117 127.695C202.195 128.555 199.945 128.984 197.367 128.984C196.227 128.984 195.062 128.836 193.875 128.539C192.688 128.258 191.578 127.836 190.547 127.273C189.516 126.711 188.648 126.016 187.945 125.188L191.25 120.547C191.891 121.266 192.695 121.875 193.664 122.375C194.633 122.891 195.773 123.148 197.086 123.148C198.227 123.148 199.18 122.945 199.945 122.539C200.727 122.133 201.32 121.539 201.727 120.758C202.133 119.992 202.336 119.062 202.336 117.969V99.6406L203.086 93.6406ZM186.234 106.625V106.133C186.234 104.211 186.469 102.461 186.938 100.883C187.422 99.2891 188.109 97.9219 189 96.7812C189.906 95.625 191 94.7344 192.281 94.1094C193.562 93.4844 195.008 93.1719 196.617 93.1719C198.352 93.1719 199.773 93.5078 200.883 94.1797C202.008 94.8359 202.906 95.7578 203.578 96.9453C204.266 98.1328 204.797 99.5234 205.172 101.117C205.562 102.695 205.891 104.398 206.156 106.227V106.812C205.891 108.531 205.523 110.156 205.055 111.688C204.602 113.203 204.008 114.547 203.273 115.719C202.539 116.891 201.617 117.812 200.508 118.484C199.414 119.141 198.102 119.469 196.57 119.469C194.977 119.469 193.539 119.148 192.258 118.508C190.992 117.867 189.906 116.969 189 115.812C188.109 114.656 187.422 113.297 186.938 111.734C186.469 110.172 186.234 108.469 186.234 106.625ZM194.133 106.133V106.625C194.133 107.578 194.219 108.461 194.391 109.273C194.578 110.086 194.859 110.805 195.234 111.43C195.609 112.039 196.07 112.516 196.617 112.859C197.18 113.203 197.836 113.375 198.586 113.375C199.727 113.375 200.648 113.133 201.352 112.648C202.055 112.164 202.562 111.477 202.875 110.586C203.188 109.695 203.32 108.648 203.273 107.445V105.594C203.305 104.562 203.234 103.656 203.062 102.875C202.891 102.078 202.617 101.414 202.242 100.883C201.883 100.352 201.398 99.9531 200.789 99.6875C200.195 99.4062 199.477 99.2656 198.633 99.2656C197.898 99.2656 197.25 99.4375 196.688 99.7812C196.125 100.125 195.656 100.609 195.281 101.234C194.906 101.844 194.617 102.57 194.414 103.414C194.227 104.242 194.133 105.148 194.133 106.133ZM227.086 119.469C225.023 119.469 223.18 119.148 221.555 118.508C219.93 117.852 218.555 116.953 217.43 115.812C216.32 114.672 215.469 113.359 214.875 111.875C214.297 110.391 214.008 108.82 214.008 107.164V106.273C214.008 104.414 214.266 102.695 214.781 101.117C215.297 99.5234 216.062 98.1328 217.078 96.9453C218.094 95.7578 219.367 94.8359 220.898 94.1797C222.43 93.5078 224.211 93.1719 226.242 93.1719C228.039 93.1719 229.648 93.4609 231.07 94.0391C232.492 94.6172 233.695 95.4453 234.68 96.5234C235.68 97.6016 236.438 98.9062 236.953 100.438C237.484 101.969 237.75 103.688 237.75 105.594V108.805H217.031V103.859H230.039V103.25C230.055 102.406 229.906 101.688 229.594 101.094C229.297 100.5 228.859 100.047 228.281 99.7344C227.703 99.4219 227 99.2656 226.172 99.2656C225.312 99.2656 224.602 99.4531 224.039 99.8281C223.492 100.203 223.062 100.719 222.75 101.375C222.453 102.016 222.242 102.758 222.117 103.602C221.992 104.445 221.93 105.336 221.93 106.273V107.164C221.93 108.102 222.055 108.953 222.305 109.719C222.57 110.484 222.945 111.141 223.43 111.688C223.93 112.219 224.523 112.633 225.211 112.93C225.914 113.227 226.711 113.375 227.602 113.375C228.68 113.375 229.742 113.172 230.789 112.766C231.836 112.359 232.734 111.688 233.484 110.75L237.07 115.016C236.555 115.75 235.82 116.461 234.867 117.148C233.93 117.836 232.805 118.398 231.492 118.836C230.18 119.258 228.711 119.469 227.086 119.469ZM248.719 99.0547V119H240.82V93.6406H248.227L248.719 99.0547ZM247.781 105.453L245.93 105.5C245.93 103.562 246.164 101.836 246.633 100.32C247.102 98.7891 247.766 97.4922 248.625 96.4297C249.484 95.3672 250.508 94.5625 251.695 94.0156C252.898 93.4531 254.234 93.1719 255.703 93.1719C256.875 93.1719 257.945 93.3438 258.914 93.6875C259.898 94.0312 260.742 94.5859 261.445 95.3516C262.164 96.1172 262.711 97.1328 263.086 98.3984C263.477 99.6484 263.672 101.195 263.672 103.039V119H255.727V103.016C255.727 102 255.586 101.227 255.305 100.695C255.023 100.148 254.617 99.7734 254.086 99.5703C253.555 99.3672 252.906 99.2656 252.141 99.2656C251.328 99.2656 250.641 99.4219 250.078 99.7344C249.516 100.047 249.062 100.484 248.719 101.047C248.391 101.594 248.148 102.242 247.992 102.992C247.852 103.742 247.781 104.562 247.781 105.453ZM281.414 93.6406V99.125H266.133V93.6406H281.414ZM269.344 87.3359H277.242V110.727C277.242 111.398 277.32 111.922 277.477 112.297C277.633 112.656 277.898 112.914 278.273 113.07C278.664 113.211 279.18 113.281 279.82 113.281C280.273 113.281 280.648 113.273 280.945 113.258C281.242 113.227 281.523 113.188 281.789 113.141V118.789C281.117 119.008 280.414 119.172 279.68 119.281C278.945 119.406 278.164 119.469 277.336 119.469C275.648 119.469 274.203 119.203 273 118.672C271.812 118.141 270.906 117.305 270.281 116.164C269.656 115.023 269.344 113.539 269.344 111.711V87.3359ZM297.844 111.875C297.844 111.438 297.695 111.062 297.398 110.75C297.117 110.422 296.617 110.125 295.898 109.859C295.18 109.578 294.172 109.297 292.875 109.016C291.641 108.75 290.477 108.398 289.383 107.961C288.305 107.523 287.359 106.992 286.547 106.367C285.734 105.742 285.094 105 284.625 104.141C284.172 103.281 283.945 102.297 283.945 101.188C283.945 100.109 284.172 99.0938 284.625 98.1406C285.094 97.1719 285.773 96.3203 286.664 95.5859C287.57 94.8359 288.672 94.25 289.969 93.8281C291.266 93.3906 292.742 93.1719 294.398 93.1719C296.68 93.1719 298.648 93.5234 300.305 94.2266C301.961 94.9141 303.234 95.8828 304.125 97.1328C305.031 98.3672 305.484 99.7969 305.484 101.422H297.586C297.586 100.781 297.477 100.234 297.258 99.7812C297.055 99.3281 296.719 98.9844 296.25 98.75C295.781 98.5 295.156 98.375 294.375 98.375C293.828 98.375 293.328 98.4766 292.875 98.6797C292.438 98.8828 292.086 99.1641 291.82 99.5234C291.555 99.8828 291.422 100.305 291.422 100.789C291.422 101.133 291.5 101.445 291.656 101.727C291.828 101.992 292.086 102.242 292.43 102.477C292.773 102.695 293.211 102.898 293.742 103.086C294.273 103.258 294.914 103.414 295.664 103.555C297.367 103.867 298.961 104.312 300.445 104.891C301.93 105.469 303.133 106.289 304.055 107.352C304.992 108.414 305.461 109.844 305.461 111.641C305.461 112.766 305.203 113.805 304.688 114.758C304.172 115.695 303.43 116.523 302.461 117.242C301.492 117.945 300.328 118.492 298.969 118.883C297.609 119.273 296.078 119.469 294.375 119.469C291.953 119.469 289.906 119.039 288.234 118.18C286.562 117.305 285.297 116.211 284.438 114.898C283.594 113.57 283.172 112.227 283.172 110.867H290.531C290.562 111.648 290.75 112.289 291.094 112.789C291.453 113.289 291.93 113.656 292.523 113.891C293.117 114.125 293.805 114.242 294.586 114.242C295.305 114.242 295.898 114.141 296.367 113.938C296.852 113.734 297.219 113.461 297.469 113.117C297.719 112.758 297.844 112.344 297.844 111.875Z" fill="black"/>
<path d="M1134 0H1348C1356.28 0 1363 6.71573 1363 15V148C1363 156.284 1356.28 163 1348 163H1134V0Z" fill="#1EA17F"/>
<path d="M1212.5 117.5L1212.5 45.5L1284.5 45.5L1284.5 117.5L1212.5 117.5Z" fill="white" fill-opacity="0.01"/>
<path d="M1221.5 81.5125L1221.5 108.5L1275.5 108.5L1275.5 81.5" stroke="white" stroke-width="7.24" stroke-linecap="round" stroke-linejoin="round"/>
<path d="M1262 68L1248.5 54.5L1235 68" stroke="white" stroke-width="7.24" stroke-linecap="round" stroke-linejoin="round"/>
<path d="M1248.49 93.4999L1248.49 54.5" stroke="white" stroke-width="7.24" stroke-linecap="round" stroke-linejoin="round"/>
</svg>
