<svg width="1363" height="163" viewBox="0 0 1363 163" fill="none" xmlns="http://www.w3.org/2000/svg">
<path d="M0 15C0 6.71573 6.71573 0 15 0H37V163H15C6.71573 163 0 156.284 0 148V15Z" fill="#424242"/>
<rect width="1097" height="163" transform="translate(37)" fill="#F0F0F0"/>
<path d="M101.906 53.9219L94.3945 51.2383V48.0859L104.602 52.375V54.6367L101.906 53.9219ZM94.3945 56.1719L101.918 53.4297L104.602 52.7852V55.0352L94.3945 59.3242V56.1719ZM123.867 58.2578V61H115.277V58.2578H123.867ZM116.414 43.9375V61H112.898V43.9375H116.414ZM131.508 61.2344C130.523 61.2344 129.641 61.0781 128.859 60.7656C128.078 60.4453 127.414 60.0039 126.867 59.4414C126.328 58.8789 125.914 58.2266 125.625 57.4844C125.336 56.7344 125.191 55.9375 125.191 55.0938V54.625C125.191 53.6641 125.328 52.7852 125.602 51.9883C125.875 51.1914 126.266 50.5 126.773 49.9141C127.289 49.3281 127.914 48.8789 128.648 48.5664C129.383 48.2461 130.211 48.0859 131.133 48.0859C132.031 48.0859 132.828 48.2344 133.523 48.5312C134.219 48.8281 134.801 49.25 135.27 49.7969C135.746 50.3438 136.105 51 136.348 51.7656C136.59 52.5234 136.711 53.3672 136.711 54.2969V55.7031H126.633V53.4531H133.395V53.1953C133.395 52.7266 133.309 52.3086 133.137 51.9414C132.973 51.5664 132.723 51.2695 132.387 51.0508C132.051 50.832 131.621 50.7227 131.098 50.7227C130.652 50.7227 130.27 50.8203 129.949 51.0156C129.629 51.2109 129.367 51.4844 129.164 51.8359C128.969 52.1875 128.82 52.6016 128.719 53.0781C128.625 53.5469 128.578 54.0625 128.578 54.625V55.0938C128.578 55.6016 128.648 56.0703 128.789 56.5C128.938 56.9297 129.145 57.3008 129.41 57.6133C129.684 57.9258 130.012 58.168 130.395 58.3398C130.785 58.5117 131.227 58.5977 131.719 58.5977C132.328 58.5977 132.895 58.4805 133.418 58.2461C133.949 58.0039 134.406 57.6406 134.789 57.1562L136.43 58.9375C136.164 59.3203 135.801 59.6875 135.34 60.0391C134.887 60.3906 134.34 60.6797 133.699 60.9062C133.059 61.125 132.328 61.2344 131.508 61.2344ZM145.477 58.1406V52.4922C145.477 52.0859 145.41 51.7383 145.277 51.4492C145.145 51.1523 144.938 50.9219 144.656 50.7578C144.383 50.5938 144.027 50.5117 143.59 50.5117C143.215 50.5117 142.891 50.5781 142.617 50.7109C142.344 50.8359 142.133 51.0195 141.984 51.2617C141.836 51.4961 141.762 51.7734 141.762 52.0938H138.387C138.387 51.5547 138.512 51.043 138.762 50.5586C139.012 50.0742 139.375 49.6484 139.852 49.2812C140.328 48.9062 140.895 48.6133 141.551 48.4023C142.215 48.1914 142.957 48.0859 143.777 48.0859C144.762 48.0859 145.637 48.25 146.402 48.5781C147.168 48.9062 147.77 49.3984 148.207 50.0547C148.652 50.7109 148.875 51.5312 148.875 52.5156V57.9414C148.875 58.6367 148.918 59.207 149.004 59.6523C149.09 60.0898 149.215 60.4727 149.379 60.8008V61H145.969C145.805 60.6562 145.68 60.2266 145.594 59.7109C145.516 59.1875 145.477 58.6641 145.477 58.1406ZM145.922 53.2773L145.945 55.1875H144.059C143.613 55.1875 143.227 55.2383 142.898 55.3398C142.57 55.4414 142.301 55.5859 142.09 55.7734C141.879 55.9531 141.723 56.1641 141.621 56.4062C141.527 56.6484 141.48 56.9141 141.48 57.2031C141.48 57.4922 141.547 57.7539 141.68 57.9883C141.812 58.2148 142.004 58.3945 142.254 58.5273C142.504 58.6523 142.797 58.7148 143.133 58.7148C143.641 58.7148 144.082 58.6133 144.457 58.4102C144.832 58.207 145.121 57.957 145.324 57.6602C145.535 57.3633 145.645 57.082 145.652 56.8164L146.543 58.2461C146.418 58.5664 146.246 58.8984 146.027 59.2422C145.816 59.5859 145.547 59.9102 145.219 60.2148C144.891 60.5117 144.496 60.7578 144.035 60.9531C143.574 61.1406 143.027 61.2344 142.395 61.2344C141.59 61.2344 140.859 61.0742 140.203 60.7539C139.555 60.4258 139.039 59.9766 138.656 59.4062C138.281 58.8281 138.094 58.1719 138.094 57.4375C138.094 56.7734 138.219 56.1836 138.469 55.668C138.719 55.1523 139.086 54.7188 139.57 54.3672C140.062 54.0078 140.676 53.7383 141.41 53.5586C142.145 53.3711 142.996 53.2773 143.965 53.2773H145.922ZM154.852 51.0859V61H151.477V48.3203H154.652L154.852 51.0859ZM158.672 48.2383L158.613 51.3672C158.449 51.3438 158.25 51.3242 158.016 51.3086C157.789 51.2852 157.582 51.2734 157.395 51.2734C156.918 51.2734 156.504 51.3359 156.152 51.4609C155.809 51.5781 155.52 51.7539 155.285 51.9883C155.059 52.2227 154.887 52.5078 154.77 52.8438C154.66 53.1797 154.598 53.5625 154.582 53.9922L153.902 53.7812C153.902 52.9609 153.984 52.207 154.148 51.5195C154.312 50.8242 154.551 50.2188 154.863 49.7031C155.184 49.1875 155.574 48.7891 156.035 48.5078C156.496 48.2266 157.023 48.0859 157.617 48.0859C157.805 48.0859 157.996 48.1016 158.191 48.1328C158.387 48.1562 158.547 48.1914 158.672 48.2383ZM163.57 51.0273V61H160.195V48.3203H163.359L163.57 51.0273ZM163.078 54.2148H162.164C162.164 53.2773 162.285 52.4336 162.527 51.6836C162.77 50.9258 163.109 50.2812 163.547 49.75C163.984 49.2109 164.504 48.8008 165.105 48.5195C165.715 48.2305 166.395 48.0859 167.145 48.0859C167.738 48.0859 168.281 48.1719 168.773 48.3438C169.266 48.5156 169.688 48.7891 170.039 49.1641C170.398 49.5391 170.672 50.0352 170.859 50.6523C171.055 51.2695 171.152 52.0234 171.152 52.9141V61H167.754V52.9023C167.754 52.3398 167.676 51.9023 167.52 51.5898C167.363 51.2773 167.133 51.0586 166.828 50.9336C166.531 50.8008 166.164 50.7344 165.727 50.7344C165.273 50.7344 164.879 50.8242 164.543 51.0039C164.215 51.1836 163.941 51.4336 163.723 51.7539C163.512 52.0664 163.352 52.4336 163.242 52.8555C163.133 53.2773 163.078 53.7305 163.078 54.2148ZM180.082 57.4375L184.102 43.9375H188.016L182.074 61H179.496L180.082 57.4375ZM176.379 43.9375L180.387 57.4375L180.996 61H178.395L172.488 43.9375H176.379ZM194.719 61.2344C193.734 61.2344 192.852 61.0781 192.07 60.7656C191.289 60.4453 190.625 60.0039 190.078 59.4414C189.539 58.8789 189.125 58.2266 188.836 57.4844C188.547 56.7344 188.402 55.9375 188.402 55.0938V54.625C188.402 53.6641 188.539 52.7852 188.812 51.9883C189.086 51.1914 189.477 50.5 189.984 49.9141C190.5 49.3281 191.125 48.8789 191.859 48.5664C192.594 48.2461 193.422 48.0859 194.344 48.0859C195.242 48.0859 196.039 48.2344 196.734 48.5312C197.43 48.8281 198.012 49.25 198.48 49.7969C198.957 50.3438 199.316 51 199.559 51.7656C199.801 52.5234 199.922 53.3672 199.922 54.2969V55.7031H189.844V53.4531H196.605V53.1953C196.605 52.7266 196.52 52.3086 196.348 51.9414C196.184 51.5664 195.934 51.2695 195.598 51.0508C195.262 50.832 194.832 50.7227 194.309 50.7227C193.863 50.7227 193.48 50.8203 193.16 51.0156C192.84 51.2109 192.578 51.4844 192.375 51.8359C192.18 52.1875 192.031 52.6016 191.93 53.0781C191.836 53.5469 191.789 54.0625 191.789 54.625V55.0938C191.789 55.6016 191.859 56.0703 192 56.5C192.148 56.9297 192.355 57.3008 192.621 57.6133C192.895 57.9258 193.223 58.168 193.605 58.3398C193.996 58.5117 194.438 58.5977 194.93 58.5977C195.539 58.5977 196.105 58.4805 196.629 58.2461C197.16 58.0039 197.617 57.6406 198 57.1562L199.641 58.9375C199.375 59.3203 199.012 59.6875 198.551 60.0391C198.098 60.3906 197.551 60.6797 196.91 60.9062C196.27 61.125 195.539 61.2344 194.719 61.2344ZM205.148 51.0273V61H201.773V48.3203H204.938L205.148 51.0273ZM204.656 54.2148H203.742C203.742 53.2773 203.863 52.4336 204.105 51.6836C204.348 50.9258 204.688 50.2812 205.125 49.75C205.562 49.2109 206.082 48.8008 206.684 48.5195C207.293 48.2305 207.973 48.0859 208.723 48.0859C209.316 48.0859 209.859 48.1719 210.352 48.3438C210.844 48.5156 211.266 48.7891 211.617 49.1641C211.977 49.5391 212.25 50.0352 212.438 50.6523C212.633 51.2695 212.73 52.0234 212.73 52.9141V61H209.332V52.9023C209.332 52.3398 209.254 51.9023 209.098 51.5898C208.941 51.2773 208.711 51.0586 208.406 50.9336C208.109 50.8008 207.742 50.7344 207.305 50.7344C206.852 50.7344 206.457 50.8242 206.121 51.0039C205.793 51.1836 205.52 51.4336 205.301 51.7539C205.09 52.0664 204.93 52.4336 204.82 52.8555C204.711 53.2773 204.656 53.7305 204.656 54.2148ZM221.508 48.3203V50.7109H214.125V48.3203H221.508ZM215.953 45.1914H219.328V57.1797C219.328 57.5469 219.375 57.8281 219.469 58.0234C219.57 58.2188 219.719 58.3555 219.914 58.4336C220.109 58.5039 220.355 58.5391 220.652 58.5391C220.863 58.5391 221.051 58.5312 221.215 58.5156C221.387 58.4922 221.531 58.4688 221.648 58.4453L221.66 60.9297C221.371 61.0234 221.059 61.0977 220.723 61.1523C220.387 61.207 220.016 61.2344 219.609 61.2344C218.867 61.2344 218.219 61.1133 217.664 60.8711C217.117 60.6211 216.695 60.2227 216.398 59.6758C216.102 59.1289 215.953 58.4102 215.953 57.5195V45.1914ZM230.93 57.9648V48.3203H234.305V61H231.129L230.93 57.9648ZM231.305 55.3633L232.301 55.3398C232.301 56.1836 232.203 56.9688 232.008 57.6953C231.812 58.4141 231.52 59.0391 231.129 59.5703C230.738 60.0938 230.246 60.5039 229.652 60.8008C229.059 61.0898 228.359 61.2344 227.555 61.2344C226.938 61.2344 226.367 61.1484 225.844 60.9766C225.328 60.7969 224.883 60.5195 224.508 60.1445C224.141 59.7617 223.852 59.2734 223.641 58.6797C223.438 58.0781 223.336 57.3555 223.336 56.5117V48.3203H226.711V56.5352C226.711 56.9102 226.754 57.2266 226.84 57.4844C226.934 57.7422 227.062 57.9531 227.227 58.1172C227.391 58.2812 227.582 58.3984 227.801 58.4688C228.027 58.5391 228.277 58.5742 228.551 58.5742C229.246 58.5742 229.793 58.4336 230.191 58.1523C230.598 57.8711 230.883 57.4883 231.047 57.0039C231.219 56.5117 231.305 55.9648 231.305 55.3633ZM240.258 51.0859V61H236.883V48.3203H240.059L240.258 51.0859ZM244.078 48.2383L244.02 51.3672C243.855 51.3438 243.656 51.3242 243.422 51.3086C243.195 51.2852 242.988 51.2734 242.801 51.2734C242.324 51.2734 241.91 51.3359 241.559 51.4609C241.215 51.5781 240.926 51.7539 240.691 51.9883C240.465 52.2227 240.293 52.5078 240.176 52.8438C240.066 53.1797 240.004 53.5625 239.988 53.9922L239.309 53.7812C239.309 52.9609 239.391 52.207 239.555 51.5195C239.719 50.8242 239.957 50.2188 240.27 49.7031C240.59 49.1875 240.98 48.7891 241.441 48.5078C241.902 48.2266 242.43 48.0859 243.023 48.0859C243.211 48.0859 243.402 48.1016 243.598 48.1328C243.793 48.1562 243.953 48.1914 244.078 48.2383ZM251.273 61.2344C250.289 61.2344 249.406 61.0781 248.625 60.7656C247.844 60.4453 247.18 60.0039 246.633 59.4414C246.094 58.8789 245.68 58.2266 245.391 57.4844C245.102 56.7344 244.957 55.9375 244.957 55.0938V54.625C244.957 53.6641 245.094 52.7852 245.367 51.9883C245.641 51.1914 246.031 50.5 246.539 49.9141C247.055 49.3281 247.68 48.8789 248.414 48.5664C249.148 48.2461 249.977 48.0859 250.898 48.0859C251.797 48.0859 252.594 48.2344 253.289 48.5312C253.984 48.8281 254.566 49.25 255.035 49.7969C255.512 50.3438 255.871 51 256.113 51.7656C256.355 52.5234 256.477 53.3672 256.477 54.2969V55.7031H246.398V53.4531H253.16V53.1953C253.16 52.7266 253.074 52.3086 252.902 51.9414C252.738 51.5664 252.488 51.2695 252.152 51.0508C251.816 50.832 251.387 50.7227 250.863 50.7227C250.418 50.7227 250.035 50.8203 249.715 51.0156C249.395 51.2109 249.133 51.4844 248.93 51.8359C248.734 52.1875 248.586 52.6016 248.484 53.0781C248.391 53.5469 248.344 54.0625 248.344 54.625V55.0938C248.344 55.6016 248.414 56.0703 248.555 56.5C248.703 56.9297 248.91 57.3008 249.176 57.6133C249.449 57.9258 249.777 58.168 250.16 58.3398C250.551 58.5117 250.992 58.5977 251.484 58.5977C252.094 58.5977 252.66 58.4805 253.184 58.2461C253.715 58.0039 254.172 57.6406 254.555 57.1562L256.195 58.9375C255.93 59.3203 255.566 59.6875 255.105 60.0391C254.652 60.3906 254.105 60.6797 253.465 60.9062C252.824 61.125 252.094 61.2344 251.273 61.2344ZM265.254 57.4961C265.254 57.2539 265.184 57.0352 265.043 56.8398C264.902 56.6445 264.641 56.4648 264.258 56.3008C263.883 56.1289 263.34 55.9727 262.629 55.832C261.988 55.6914 261.391 55.5156 260.836 55.3047C260.289 55.0859 259.812 54.8242 259.406 54.5195C259.008 54.2148 258.695 53.8555 258.469 53.4414C258.242 53.0195 258.129 52.5391 258.129 52C258.129 51.4688 258.242 50.9688 258.469 50.5C258.703 50.0312 259.035 49.6172 259.465 49.2578C259.902 48.8906 260.434 48.6055 261.059 48.4023C261.691 48.1914 262.402 48.0859 263.191 48.0859C264.293 48.0859 265.238 48.2617 266.027 48.6133C266.824 48.9648 267.434 49.4492 267.855 50.0664C268.285 50.6758 268.5 51.3711 268.5 52.1523H265.125C265.125 51.8242 265.055 51.5312 264.914 51.2734C264.781 51.0078 264.57 50.8008 264.281 50.6523C264 50.4961 263.633 50.418 263.18 50.418C262.805 50.418 262.48 50.4844 262.207 50.6172C261.934 50.7422 261.723 50.9141 261.574 51.1328C261.434 51.3438 261.363 51.5781 261.363 51.8359C261.363 52.0312 261.402 52.207 261.48 52.3633C261.566 52.5117 261.703 52.6484 261.891 52.7734C262.078 52.8984 262.32 53.0156 262.617 53.125C262.922 53.2266 263.297 53.3203 263.742 53.4062C264.656 53.5938 265.473 53.8398 266.191 54.1445C266.91 54.4414 267.48 54.8477 267.902 55.3633C268.324 55.8711 268.535 56.5391 268.535 57.3672C268.535 57.9297 268.41 58.4453 268.16 58.9141C267.91 59.3828 267.551 59.793 267.082 60.1445C266.613 60.4883 266.051 60.7578 265.395 60.9531C264.746 61.1406 264.016 61.2344 263.203 61.2344C262.023 61.2344 261.023 61.0234 260.203 60.6016C259.391 60.1797 258.773 59.6445 258.352 58.9961C257.938 58.3398 257.73 57.668 257.73 56.9805H260.93C260.945 57.4414 261.062 57.8125 261.281 58.0938C261.508 58.375 261.793 58.5781 262.137 58.7031C262.488 58.8281 262.867 58.8906 263.273 58.8906C263.711 58.8906 264.074 58.832 264.363 58.7148C264.652 58.5898 264.871 58.4258 265.02 58.2227C265.176 58.0117 265.254 57.7695 265.254 57.4961Z" fill="#888888"/>
<path d="M109.219 107.422H100.734V101.07H109.219C110.375 101.07 111.312 100.875 112.031 100.484C112.75 100.094 113.273 99.5547 113.602 98.8672C113.945 98.1641 114.117 97.375 114.117 96.5C114.117 95.5625 113.945 94.6953 113.602 93.8984C113.273 93.1016 112.75 92.4609 112.031 91.9766C111.312 91.4766 110.375 91.2266 109.219 91.2266H103.828V119H95.6016V84.875H109.219C111.953 84.875 114.305 85.375 116.273 86.375C118.258 87.375 119.781 88.75 120.844 90.5C121.906 92.2344 122.438 94.2188 122.438 96.4531C122.438 98.6562 121.906 100.578 120.844 102.219C119.781 103.859 118.258 105.141 116.273 106.062C114.305 106.969 111.953 107.422 109.219 107.422ZM134.461 99.9219V119H126.562V93.6406H133.945L134.461 99.9219ZM141.961 93.4531L141.82 100.789C141.508 100.758 141.086 100.719 140.555 100.672C140.023 100.625 139.578 100.602 139.219 100.602C138.297 100.602 137.5 100.711 136.828 100.93C136.172 101.133 135.625 101.445 135.188 101.867C134.766 102.273 134.453 102.789 134.25 103.414C134.062 104.039 133.977 104.766 133.992 105.594L132.562 104.656C132.562 102.953 132.727 101.406 133.055 100.016C133.398 98.6094 133.883 97.3984 134.508 96.3828C135.133 95.3516 135.891 94.5625 136.781 94.0156C137.672 93.4531 138.672 93.1719 139.781 93.1719C140.172 93.1719 140.555 93.1953 140.93 93.2422C141.32 93.2891 141.664 93.3594 141.961 93.4531ZM142.852 106.578V106.086C142.852 104.227 143.117 102.516 143.648 100.953C144.18 99.375 144.961 98.0078 145.992 96.8516C147.023 95.6953 148.297 94.7969 149.812 94.1562C151.328 93.5 153.078 93.1719 155.062 93.1719C157.062 93.1719 158.82 93.5 160.336 94.1562C161.867 94.7969 163.148 95.6953 164.18 96.8516C165.211 98.0078 165.992 99.375 166.523 100.953C167.055 102.516 167.32 104.227 167.32 106.086V106.578C167.32 108.422 167.055 110.133 166.523 111.711C165.992 113.273 165.211 114.641 164.18 115.812C163.148 116.969 161.875 117.867 160.359 118.508C158.844 119.148 157.094 119.469 155.109 119.469C153.125 119.469 151.367 119.148 149.836 118.508C148.305 117.867 147.023 116.969 145.992 115.812C144.961 114.641 144.18 113.273 143.648 111.711C143.117 110.133 142.852 108.422 142.852 106.578ZM150.75 106.086V106.578C150.75 107.531 150.82 108.422 150.961 109.25C151.102 110.078 151.336 110.805 151.664 111.43C151.992 112.039 152.438 112.516 153 112.859C153.562 113.203 154.266 113.375 155.109 113.375C155.938 113.375 156.625 113.203 157.172 112.859C157.734 112.516 158.18 112.039 158.508 111.43C158.836 110.805 159.07 110.078 159.211 109.25C159.352 108.422 159.422 107.531 159.422 106.578V106.086C159.422 105.164 159.352 104.297 159.211 103.484C159.07 102.656 158.836 101.93 158.508 101.305C158.18 100.664 157.734 100.164 157.172 99.8047C156.609 99.4453 155.906 99.2656 155.062 99.2656C154.234 99.2656 153.539 99.4453 152.977 99.8047C152.43 100.164 151.992 100.664 151.664 101.305C151.336 101.93 151.102 102.656 150.961 103.484C150.82 104.297 150.75 105.164 150.75 106.086ZM171.422 93.6406H179.344V119.82C179.344 121.852 178.953 123.562 178.172 124.953C177.391 126.359 176.273 127.422 174.82 128.141C173.367 128.875 171.633 129.242 169.617 129.242C168.945 129.242 168.328 129.211 167.766 129.148C167.188 129.102 166.555 129 165.867 128.844V122.867C166.273 122.93 166.648 122.977 166.992 123.008C167.336 123.055 167.711 123.078 168.117 123.078C168.836 123.078 169.438 122.961 169.922 122.727C170.406 122.492 170.773 122.133 171.023 121.648C171.289 121.164 171.422 120.555 171.422 119.82V93.6406ZM170.836 87.1016C170.836 85.9766 171.242 85.0547 172.055 84.3359C172.867 83.6172 173.922 83.2578 175.219 83.2578C176.516 83.2578 177.57 83.6172 178.383 84.3359C179.195 85.0547 179.602 85.9766 179.602 87.1016C179.602 88.2266 179.195 89.1484 178.383 89.8672C177.57 90.5859 176.516 90.9453 175.219 90.9453C173.922 90.9453 172.867 90.5859 172.055 89.8672C171.242 89.1484 170.836 88.2266 170.836 87.1016ZM196.102 119.469C194.039 119.469 192.195 119.148 190.57 118.508C188.945 117.852 187.57 116.953 186.445 115.812C185.336 114.672 184.484 113.359 183.891 111.875C183.312 110.391 183.023 108.82 183.023 107.164V106.273C183.023 104.414 183.281 102.695 183.797 101.117C184.312 99.5234 185.078 98.1328 186.094 96.9453C187.109 95.7578 188.383 94.8359 189.914 94.1797C191.445 93.5078 193.227 93.1719 195.258 93.1719C197.055 93.1719 198.664 93.4609 200.086 94.0391C201.508 94.6172 202.711 95.4453 203.695 96.5234C204.695 97.6016 205.453 98.9062 205.969 100.438C206.5 101.969 206.766 103.688 206.766 105.594V108.805H186.047V103.859H199.055V103.25C199.07 102.406 198.922 101.688 198.609 101.094C198.312 100.5 197.875 100.047 197.297 99.7344C196.719 99.4219 196.016 99.2656 195.188 99.2656C194.328 99.2656 193.617 99.4531 193.055 99.8281C192.508 100.203 192.078 100.719 191.766 101.375C191.469 102.016 191.258 102.758 191.133 103.602C191.008 104.445 190.945 105.336 190.945 106.273V107.164C190.945 108.102 191.07 108.953 191.32 109.719C191.586 110.484 191.961 111.141 192.445 111.688C192.945 112.219 193.539 112.633 194.227 112.93C194.93 113.227 195.727 113.375 196.617 113.375C197.695 113.375 198.758 113.172 199.805 112.766C200.852 112.359 201.75 111.688 202.5 110.75L206.086 115.016C205.57 115.75 204.836 116.461 203.883 117.148C202.945 117.836 201.82 118.398 200.508 118.836C199.195 119.258 197.727 119.469 196.102 119.469ZM220.688 113.375C221.422 113.375 222.047 113.242 222.562 112.977C223.094 112.695 223.492 112.305 223.758 111.805C224.039 111.289 224.172 110.672 224.156 109.953H231.586C231.602 111.859 231.133 113.531 230.18 114.969C229.242 116.391 227.961 117.5 226.336 118.297C224.727 119.078 222.906 119.469 220.875 119.469C218.891 119.469 217.156 119.148 215.672 118.508C214.188 117.852 212.945 116.945 211.945 115.789C210.961 114.617 210.219 113.25 209.719 111.688C209.234 110.125 208.992 108.43 208.992 106.602V106.062C208.992 104.234 209.234 102.539 209.719 100.977C210.219 99.3984 210.961 98.0312 211.945 96.875C212.945 95.7031 214.18 94.7969 215.648 94.1562C217.133 93.5 218.859 93.1719 220.828 93.1719C222.938 93.1719 224.797 93.5703 226.406 94.3672C228.031 95.1641 229.305 96.3203 230.227 97.8359C231.148 99.3516 231.602 101.188 231.586 103.344H224.156C224.172 102.578 224.055 101.891 223.805 101.281C223.555 100.672 223.164 100.188 222.633 99.8281C222.117 99.4531 221.453 99.2656 220.641 99.2656C219.828 99.2656 219.172 99.4453 218.672 99.8047C218.172 100.164 217.789 100.664 217.523 101.305C217.273 101.93 217.102 102.648 217.008 103.461C216.93 104.273 216.891 105.141 216.891 106.062V106.602C216.891 107.539 216.93 108.422 217.008 109.25C217.102 110.062 217.281 110.781 217.547 111.406C217.812 112.016 218.195 112.5 218.695 112.859C219.195 113.203 219.859 113.375 220.688 113.375ZM248.32 93.6406V99.125H233.039V93.6406H248.32ZM236.25 87.3359H244.148V110.727C244.148 111.398 244.227 111.922 244.383 112.297C244.539 112.656 244.805 112.914 245.18 113.07C245.57 113.211 246.086 113.281 246.727 113.281C247.18 113.281 247.555 113.273 247.852 113.258C248.148 113.227 248.43 113.188 248.695 113.141V118.789C248.023 119.008 247.32 119.172 246.586 119.281C245.852 119.406 245.07 119.469 244.242 119.469C242.555 119.469 241.109 119.203 239.906 118.672C238.719 118.141 237.812 117.305 237.188 116.164C236.562 115.023 236.25 113.539 236.25 111.711V87.3359ZM292.664 101.258V102.641C292.664 105.25 292.297 107.594 291.562 109.672C290.844 111.734 289.82 113.5 288.492 114.969C287.164 116.422 285.594 117.539 283.781 118.32C281.969 119.086 279.969 119.469 277.781 119.469C275.578 119.469 273.562 119.086 271.734 118.32C269.922 117.539 268.344 116.422 267 114.969C265.672 113.5 264.641 111.734 263.906 109.672C263.188 107.594 262.828 105.25 262.828 102.641V101.258C262.828 98.6484 263.188 96.3047 263.906 94.2266C264.641 92.1484 265.664 90.3828 266.977 88.9297C268.305 87.4609 269.875 86.3438 271.688 85.5781C273.516 84.7969 275.531 84.4062 277.734 84.4062C279.922 84.4062 281.922 84.7969 283.734 85.5781C285.562 86.3438 287.141 87.4609 288.469 88.9297C289.797 90.3828 290.828 92.1484 291.562 94.2266C292.297 96.3047 292.664 98.6484 292.664 101.258ZM284.32 102.641V101.211C284.32 99.5234 284.172 98.0391 283.875 96.7578C283.594 95.4609 283.172 94.375 282.609 93.5C282.047 92.625 281.352 91.9688 280.523 91.5312C279.711 91.0781 278.781 90.8516 277.734 90.8516C276.641 90.8516 275.688 91.0781 274.875 91.5312C274.062 91.9688 273.383 92.625 272.836 93.5C272.289 94.375 271.875 95.4609 271.594 96.7578C271.328 98.0391 271.195 99.5234 271.195 101.211V102.641C271.195 104.312 271.328 105.797 271.594 107.094C271.875 108.375 272.289 109.461 272.836 110.352C273.398 111.242 274.086 111.914 274.898 112.367C275.727 112.82 276.688 113.047 277.781 113.047C278.828 113.047 279.758 112.82 280.57 112.367C281.383 111.914 282.062 111.242 282.609 110.352C283.172 109.461 283.594 108.375 283.875 107.094C284.172 105.797 284.32 104.312 284.32 102.641ZM305.695 113.586L310.688 93.6406H319.008L310.711 119H305.789L305.695 113.586ZM302.742 93.6406L307.664 113.586L307.617 119H302.672L294.398 93.6406H302.742ZM333.305 119.469C331.242 119.469 329.398 119.148 327.773 118.508C326.148 117.852 324.773 116.953 323.648 115.812C322.539 114.672 321.688 113.359 321.094 111.875C320.516 110.391 320.227 108.82 320.227 107.164V106.273C320.227 104.414 320.484 102.695 321 101.117C321.516 99.5234 322.281 98.1328 323.297 96.9453C324.312 95.7578 325.586 94.8359 327.117 94.1797C328.648 93.5078 330.43 93.1719 332.461 93.1719C334.258 93.1719 335.867 93.4609 337.289 94.0391C338.711 94.6172 339.914 95.4453 340.898 96.5234C341.898 97.6016 342.656 98.9062 343.172 100.438C343.703 101.969 343.969 103.688 343.969 105.594V108.805H323.25V103.859H336.258V103.25C336.273 102.406 336.125 101.688 335.812 101.094C335.516 100.5 335.078 100.047 334.5 99.7344C333.922 99.4219 333.219 99.2656 332.391 99.2656C331.531 99.2656 330.82 99.4531 330.258 99.8281C329.711 100.203 329.281 100.719 328.969 101.375C328.672 102.016 328.461 102.758 328.336 103.602C328.211 104.445 328.148 105.336 328.148 106.273V107.164C328.148 108.102 328.273 108.953 328.523 109.719C328.789 110.484 329.164 111.141 329.648 111.688C330.148 112.219 330.742 112.633 331.43 112.93C332.133 113.227 332.93 113.375 333.82 113.375C334.898 113.375 335.961 113.172 337.008 112.766C338.055 112.359 338.953 111.688 339.703 110.75L343.289 115.016C342.773 115.75 342.039 116.461 341.086 117.148C340.148 117.836 339.023 118.398 337.711 118.836C336.398 119.258 334.93 119.469 333.305 119.469ZM355.148 99.9219V119H347.25V93.6406H354.633L355.148 99.9219ZM362.648 93.4531L362.508 100.789C362.195 100.758 361.773 100.719 361.242 100.672C360.711 100.625 360.266 100.602 359.906 100.602C358.984 100.602 358.188 100.711 357.516 100.93C356.859 101.133 356.312 101.445 355.875 101.867C355.453 102.273 355.141 102.789 354.938 103.414C354.75 104.039 354.664 104.766 354.68 105.594L353.25 104.656C353.25 102.953 353.414 101.406 353.742 100.016C354.086 98.6094 354.57 97.3984 355.195 96.3828C355.82 95.3516 356.578 94.5625 357.469 94.0156C358.359 93.4531 359.359 93.1719 360.469 93.1719C360.859 93.1719 361.242 93.1953 361.617 93.2422C362.008 93.2891 362.352 93.3594 362.648 93.4531ZM374.93 113.586L379.922 93.6406H388.242L379.945 119H375.023L374.93 113.586ZM371.977 93.6406L376.898 113.586L376.852 119H371.906L363.633 93.6406H371.977ZM398.93 93.6406V119H391.008V93.6406H398.93ZM390.539 87.1016C390.539 85.9766 390.945 85.0547 391.758 84.3359C392.57 83.6172 393.625 83.2578 394.922 83.2578C396.219 83.2578 397.273 83.6172 398.086 84.3359C398.898 85.0547 399.305 85.9766 399.305 87.1016C399.305 88.2266 398.898 89.1484 398.086 89.8672C397.273 90.5859 396.219 90.9453 394.922 90.9453C393.625 90.9453 392.57 90.5859 391.758 89.8672C390.945 89.1484 390.539 88.2266 390.539 87.1016ZM416.086 119.469C414.023 119.469 412.18 119.148 410.555 118.508C408.93 117.852 407.555 116.953 406.43 115.812C405.32 114.672 404.469 113.359 403.875 111.875C403.297 110.391 403.008 108.82 403.008 107.164V106.273C403.008 104.414 403.266 102.695 403.781 101.117C404.297 99.5234 405.062 98.1328 406.078 96.9453C407.094 95.7578 408.367 94.8359 409.898 94.1797C411.43 93.5078 413.211 93.1719 415.242 93.1719C417.039 93.1719 418.648 93.4609 420.07 94.0391C421.492 94.6172 422.695 95.4453 423.68 96.5234C424.68 97.6016 425.438 98.9062 425.953 100.438C426.484 101.969 426.75 103.688 426.75 105.594V108.805H406.031V103.859H419.039V103.25C419.055 102.406 418.906 101.688 418.594 101.094C418.297 100.5 417.859 100.047 417.281 99.7344C416.703 99.4219 416 99.2656 415.172 99.2656C414.312 99.2656 413.602 99.4531 413.039 99.8281C412.492 100.203 412.062 100.719 411.75 101.375C411.453 102.016 411.242 102.758 411.117 103.602C410.992 104.445 410.93 105.336 410.93 106.273V107.164C410.93 108.102 411.055 108.953 411.305 109.719C411.57 110.484 411.945 111.141 412.43 111.688C412.93 112.219 413.523 112.633 414.211 112.93C414.914 113.227 415.711 113.375 416.602 113.375C417.68 113.375 418.742 113.172 419.789 112.766C420.836 112.359 421.734 111.688 422.484 110.75L426.07 115.016C425.555 115.75 424.82 116.461 423.867 117.148C422.93 117.836 421.805 118.398 420.492 118.836C419.18 119.258 417.711 119.469 416.086 119.469ZM437.672 111.453L442.359 93.6406H447.305L445.547 102.57L440.906 119H436.945L437.672 111.453ZM435.82 93.6406L438.727 111.312L439.055 119H434.25L428.25 93.6406H435.82ZM451.477 110.938L454.406 93.6406H461.977L456.023 119H451.219L451.477 110.938ZM447.867 93.6406L452.602 111.406L453.328 119H449.32L444.773 102.617L443.086 93.6406H447.867Z" fill="black"/>
<path d="M1134 0H1348C1356.28 0 1363 6.71573 1363 15V148C1363 156.284 1356.28 163 1348 163H1134V0Z" fill="#1EA17F"/>
<path d="M1234.26 103.786H1262.74V109.357H1234.26V103.786ZM1239.96 114.929H1257.04V120.5H1239.96V114.929ZM1248.5 42.5C1240.95 42.5 1233.71 45.4349 1228.37 50.6592C1223.03 55.8834 1220.03 62.969 1220.03 70.3571C1219.84 74.4057 1220.63 78.4412 1222.34 82.1315C1224.05 85.8219 1226.64 89.0616 1229.88 91.5843C1232.73 94.175 1234.26 95.6514 1234.26 98.2143H1239.96C1239.96 93.0886 1236.8 90.2193 1233.72 87.4614C1231.06 85.4676 1228.94 82.8658 1227.55 79.8838C1226.15 76.9019 1225.53 73.6308 1225.72 70.3571C1225.72 64.4466 1228.12 58.7781 1232.39 54.5988C1236.67 50.4194 1242.46 48.0714 1248.5 48.0714C1254.54 48.0714 1260.33 50.4194 1264.61 54.5988C1268.88 58.7781 1271.28 64.4466 1271.28 70.3571C1271.47 73.6333 1270.84 76.9059 1269.44 79.888C1268.04 82.8701 1265.92 85.4706 1263.25 87.4614C1260.2 90.2471 1257.04 93.0329 1257.04 98.2143H1262.74C1262.74 95.6514 1264.25 94.175 1267.12 91.5564C1270.36 89.0381 1272.94 85.8031 1274.66 82.1176C1276.37 78.4321 1277.16 74.4014 1276.97 70.3571C1276.97 66.6989 1276.24 63.0765 1274.81 59.6967C1273.37 56.3169 1271.28 53.2459 1268.63 50.6592C1265.99 48.0724 1262.85 46.0205 1259.4 44.6205C1255.94 43.2205 1252.24 42.5 1248.5 42.5Z" fill="white"/>
</svg>
