<svg width="1363" height="163" viewBox="0 0 1363 163" fill="none" xmlns="http://www.w3.org/2000/svg">
<path d="M0 15C0 6.71573 6.71573 0 15 0H37V163H15C6.71573 163 0 156.284 0 148V15Z" fill="#424242"/>
<rect width="1097" height="163" transform="translate(37)" fill="#F0F0F0"/>
<path d="M101.906 53.9219L94.3945 51.2383V48.0859L104.602 52.375V54.6367L101.906 53.9219ZM94.3945 56.1719L101.918 53.4297L104.602 52.7852V55.0352L94.3945 59.3242V56.1719ZM123.867 58.2578V61H115.277V58.2578H123.867ZM116.414 43.9375V61H112.898V43.9375H116.414ZM131.508 61.2344C130.523 61.2344 129.641 61.0781 128.859 60.7656C128.078 60.4453 127.414 60.0039 126.867 59.4414C126.328 58.8789 125.914 58.2266 125.625 57.4844C125.336 56.7344 125.191 55.9375 125.191 55.0938V54.625C125.191 53.6641 125.328 52.7852 125.602 51.9883C125.875 51.1914 126.266 50.5 126.773 49.9141C127.289 49.3281 127.914 48.8789 128.648 48.5664C129.383 48.2461 130.211 48.0859 131.133 48.0859C132.031 48.0859 132.828 48.2344 133.523 48.5312C134.219 48.8281 134.801 49.25 135.27 49.7969C135.746 50.3438 136.105 51 136.348 51.7656C136.59 52.5234 136.711 53.3672 136.711 54.2969V55.7031H126.633V53.4531H133.395V53.1953C133.395 52.7266 133.309 52.3086 133.137 51.9414C132.973 51.5664 132.723 51.2695 132.387 51.0508C132.051 50.832 131.621 50.7227 131.098 50.7227C130.652 50.7227 130.27 50.8203 129.949 51.0156C129.629 51.2109 129.367 51.4844 129.164 51.8359C128.969 52.1875 128.82 52.6016 128.719 53.0781C128.625 53.5469 128.578 54.0625 128.578 54.625V55.0938C128.578 55.6016 128.648 56.0703 128.789 56.5C128.938 56.9297 129.145 57.3008 129.41 57.6133C129.684 57.9258 130.012 58.168 130.395 58.3398C130.785 58.5117 131.227 58.5977 131.719 58.5977C132.328 58.5977 132.895 58.4805 133.418 58.2461C133.949 58.0039 134.406 57.6406 134.789 57.1562L136.43 58.9375C136.164 59.3203 135.801 59.6875 135.34 60.0391C134.887 60.3906 134.34 60.6797 133.699 60.9062C133.059 61.125 132.328 61.2344 131.508 61.2344ZM145.477 58.1406V52.4922C145.477 52.0859 145.41 51.7383 145.277 51.4492C145.145 51.1523 144.938 50.9219 144.656 50.7578C144.383 50.5938 144.027 50.5117 143.59 50.5117C143.215 50.5117 142.891 50.5781 142.617 50.7109C142.344 50.8359 142.133 51.0195 141.984 51.2617C141.836 51.4961 141.762 51.7734 141.762 52.0938H138.387C138.387 51.5547 138.512 51.043 138.762 50.5586C139.012 50.0742 139.375 49.6484 139.852 49.2812C140.328 48.9062 140.895 48.6133 141.551 48.4023C142.215 48.1914 142.957 48.0859 143.777 48.0859C144.762 48.0859 145.637 48.25 146.402 48.5781C147.168 48.9062 147.77 49.3984 148.207 50.0547C148.652 50.7109 148.875 51.5312 148.875 52.5156V57.9414C148.875 58.6367 148.918 59.207 149.004 59.6523C149.09 60.0898 149.215 60.4727 149.379 60.8008V61H145.969C145.805 60.6562 145.68 60.2266 145.594 59.7109C145.516 59.1875 145.477 58.6641 145.477 58.1406ZM145.922 53.2773L145.945 55.1875H144.059C143.613 55.1875 143.227 55.2383 142.898 55.3398C142.57 55.4414 142.301 55.5859 142.09 55.7734C141.879 55.9531 141.723 56.1641 141.621 56.4062C141.527 56.6484 141.48 56.9141 141.48 57.2031C141.48 57.4922 141.547 57.7539 141.68 57.9883C141.812 58.2148 142.004 58.3945 142.254 58.5273C142.504 58.6523 142.797 58.7148 143.133 58.7148C143.641 58.7148 144.082 58.6133 144.457 58.4102C144.832 58.207 145.121 57.957 145.324 57.6602C145.535 57.3633 145.645 57.082 145.652 56.8164L146.543 58.2461C146.418 58.5664 146.246 58.8984 146.027 59.2422C145.816 59.5859 145.547 59.9102 145.219 60.2148C144.891 60.5117 144.496 60.7578 144.035 60.9531C143.574 61.1406 143.027 61.2344 142.395 61.2344C141.59 61.2344 140.859 61.0742 140.203 60.7539C139.555 60.4258 139.039 59.9766 138.656 59.4062C138.281 58.8281 138.094 58.1719 138.094 57.4375C138.094 56.7734 138.219 56.1836 138.469 55.668C138.719 55.1523 139.086 54.7188 139.57 54.3672C140.062 54.0078 140.676 53.7383 141.41 53.5586C142.145 53.3711 142.996 53.2773 143.965 53.2773H145.922ZM154.852 51.0859V61H151.477V48.3203H154.652L154.852 51.0859ZM158.672 48.2383L158.613 51.3672C158.449 51.3438 158.25 51.3242 158.016 51.3086C157.789 51.2852 157.582 51.2734 157.395 51.2734C156.918 51.2734 156.504 51.3359 156.152 51.4609C155.809 51.5781 155.52 51.7539 155.285 51.9883C155.059 52.2227 154.887 52.5078 154.77 52.8438C154.66 53.1797 154.598 53.5625 154.582 53.9922L153.902 53.7812C153.902 52.9609 153.984 52.207 154.148 51.5195C154.312 50.8242 154.551 50.2188 154.863 49.7031C155.184 49.1875 155.574 48.7891 156.035 48.5078C156.496 48.2266 157.023 48.0859 157.617 48.0859C157.805 48.0859 157.996 48.1016 158.191 48.1328C158.387 48.1562 158.547 48.1914 158.672 48.2383ZM163.57 51.0273V61H160.195V48.3203H163.359L163.57 51.0273ZM163.078 54.2148H162.164C162.164 53.2773 162.285 52.4336 162.527 51.6836C162.77 50.9258 163.109 50.2812 163.547 49.75C163.984 49.2109 164.504 48.8008 165.105 48.5195C165.715 48.2305 166.395 48.0859 167.145 48.0859C167.738 48.0859 168.281 48.1719 168.773 48.3438C169.266 48.5156 169.688 48.7891 170.039 49.1641C170.398 49.5391 170.672 50.0352 170.859 50.6523C171.055 51.2695 171.152 52.0234 171.152 52.9141V61H167.754V52.9023C167.754 52.3398 167.676 51.9023 167.52 51.5898C167.363 51.2773 167.133 51.0586 166.828 50.9336C166.531 50.8008 166.164 50.7344 165.727 50.7344C165.273 50.7344 164.879 50.8242 164.543 51.0039C164.215 51.1836 163.941 51.4336 163.723 51.7539C163.512 52.0664 163.352 52.4336 163.242 52.8555C163.133 53.2773 163.078 53.7305 163.078 54.2148ZM180.082 57.4375L184.102 43.9375H188.016L182.074 61H179.496L180.082 57.4375ZM176.379 43.9375L180.387 57.4375L180.996 61H178.395L172.488 43.9375H176.379ZM194.719 61.2344C193.734 61.2344 192.852 61.0781 192.07 60.7656C191.289 60.4453 190.625 60.0039 190.078 59.4414C189.539 58.8789 189.125 58.2266 188.836 57.4844C188.547 56.7344 188.402 55.9375 188.402 55.0938V54.625C188.402 53.6641 188.539 52.7852 188.812 51.9883C189.086 51.1914 189.477 50.5 189.984 49.9141C190.5 49.3281 191.125 48.8789 191.859 48.5664C192.594 48.2461 193.422 48.0859 194.344 48.0859C195.242 48.0859 196.039 48.2344 196.734 48.5312C197.43 48.8281 198.012 49.25 198.48 49.7969C198.957 50.3438 199.316 51 199.559 51.7656C199.801 52.5234 199.922 53.3672 199.922 54.2969V55.7031H189.844V53.4531H196.605V53.1953C196.605 52.7266 196.52 52.3086 196.348 51.9414C196.184 51.5664 195.934 51.2695 195.598 51.0508C195.262 50.832 194.832 50.7227 194.309 50.7227C193.863 50.7227 193.48 50.8203 193.16 51.0156C192.84 51.2109 192.578 51.4844 192.375 51.8359C192.18 52.1875 192.031 52.6016 191.93 53.0781C191.836 53.5469 191.789 54.0625 191.789 54.625V55.0938C191.789 55.6016 191.859 56.0703 192 56.5C192.148 56.9297 192.355 57.3008 192.621 57.6133C192.895 57.9258 193.223 58.168 193.605 58.3398C193.996 58.5117 194.438 58.5977 194.93 58.5977C195.539 58.5977 196.105 58.4805 196.629 58.2461C197.16 58.0039 197.617 57.6406 198 57.1562L199.641 58.9375C199.375 59.3203 199.012 59.6875 198.551 60.0391C198.098 60.3906 197.551 60.6797 196.91 60.9062C196.27 61.125 195.539 61.2344 194.719 61.2344ZM205.148 51.0273V61H201.773V48.3203H204.938L205.148 51.0273ZM204.656 54.2148H203.742C203.742 53.2773 203.863 52.4336 204.105 51.6836C204.348 50.9258 204.688 50.2812 205.125 49.75C205.562 49.2109 206.082 48.8008 206.684 48.5195C207.293 48.2305 207.973 48.0859 208.723 48.0859C209.316 48.0859 209.859 48.1719 210.352 48.3438C210.844 48.5156 211.266 48.7891 211.617 49.1641C211.977 49.5391 212.25 50.0352 212.438 50.6523C212.633 51.2695 212.73 52.0234 212.73 52.9141V61H209.332V52.9023C209.332 52.3398 209.254 51.9023 209.098 51.5898C208.941 51.2773 208.711 51.0586 208.406 50.9336C208.109 50.8008 207.742 50.7344 207.305 50.7344C206.852 50.7344 206.457 50.8242 206.121 51.0039C205.793 51.1836 205.52 51.4336 205.301 51.7539C205.09 52.0664 204.93 52.4336 204.82 52.8555C204.711 53.2773 204.656 53.7305 204.656 54.2148ZM221.508 48.3203V50.7109H214.125V48.3203H221.508ZM215.953 45.1914H219.328V57.1797C219.328 57.5469 219.375 57.8281 219.469 58.0234C219.57 58.2188 219.719 58.3555 219.914 58.4336C220.109 58.5039 220.355 58.5391 220.652 58.5391C220.863 58.5391 221.051 58.5312 221.215 58.5156C221.387 58.4922 221.531 58.4688 221.648 58.4453L221.66 60.9297C221.371 61.0234 221.059 61.0977 220.723 61.1523C220.387 61.207 220.016 61.2344 219.609 61.2344C218.867 61.2344 218.219 61.1133 217.664 60.8711C217.117 60.6211 216.695 60.2227 216.398 59.6758C216.102 59.1289 215.953 58.4102 215.953 57.5195V45.1914ZM230.93 57.9648V48.3203H234.305V61H231.129L230.93 57.9648ZM231.305 55.3633L232.301 55.3398C232.301 56.1836 232.203 56.9688 232.008 57.6953C231.812 58.4141 231.52 59.0391 231.129 59.5703C230.738 60.0938 230.246 60.5039 229.652 60.8008C229.059 61.0898 228.359 61.2344 227.555 61.2344C226.938 61.2344 226.367 61.1484 225.844 60.9766C225.328 60.7969 224.883 60.5195 224.508 60.1445C224.141 59.7617 223.852 59.2734 223.641 58.6797C223.438 58.0781 223.336 57.3555 223.336 56.5117V48.3203H226.711V56.5352C226.711 56.9102 226.754 57.2266 226.84 57.4844C226.934 57.7422 227.062 57.9531 227.227 58.1172C227.391 58.2812 227.582 58.3984 227.801 58.4688C228.027 58.5391 228.277 58.5742 228.551 58.5742C229.246 58.5742 229.793 58.4336 230.191 58.1523C230.598 57.8711 230.883 57.4883 231.047 57.0039C231.219 56.5117 231.305 55.9648 231.305 55.3633ZM240.258 51.0859V61H236.883V48.3203H240.059L240.258 51.0859ZM244.078 48.2383L244.02 51.3672C243.855 51.3438 243.656 51.3242 243.422 51.3086C243.195 51.2852 242.988 51.2734 242.801 51.2734C242.324 51.2734 241.91 51.3359 241.559 51.4609C241.215 51.5781 240.926 51.7539 240.691 51.9883C240.465 52.2227 240.293 52.5078 240.176 52.8438C240.066 53.1797 240.004 53.5625 239.988 53.9922L239.309 53.7812C239.309 52.9609 239.391 52.207 239.555 51.5195C239.719 50.8242 239.957 50.2188 240.27 49.7031C240.59 49.1875 240.98 48.7891 241.441 48.5078C241.902 48.2266 242.43 48.0859 243.023 48.0859C243.211 48.0859 243.402 48.1016 243.598 48.1328C243.793 48.1562 243.953 48.1914 244.078 48.2383ZM251.273 61.2344C250.289 61.2344 249.406 61.0781 248.625 60.7656C247.844 60.4453 247.18 60.0039 246.633 59.4414C246.094 58.8789 245.68 58.2266 245.391 57.4844C245.102 56.7344 244.957 55.9375 244.957 55.0938V54.625C244.957 53.6641 245.094 52.7852 245.367 51.9883C245.641 51.1914 246.031 50.5 246.539 49.9141C247.055 49.3281 247.68 48.8789 248.414 48.5664C249.148 48.2461 249.977 48.0859 250.898 48.0859C251.797 48.0859 252.594 48.2344 253.289 48.5312C253.984 48.8281 254.566 49.25 255.035 49.7969C255.512 50.3438 255.871 51 256.113 51.7656C256.355 52.5234 256.477 53.3672 256.477 54.2969V55.7031H246.398V53.4531H253.16V53.1953C253.16 52.7266 253.074 52.3086 252.902 51.9414C252.738 51.5664 252.488 51.2695 252.152 51.0508C251.816 50.832 251.387 50.7227 250.863 50.7227C250.418 50.7227 250.035 50.8203 249.715 51.0156C249.395 51.2109 249.133 51.4844 248.93 51.8359C248.734 52.1875 248.586 52.6016 248.484 53.0781C248.391 53.5469 248.344 54.0625 248.344 54.625V55.0938C248.344 55.6016 248.414 56.0703 248.555 56.5C248.703 56.9297 248.91 57.3008 249.176 57.6133C249.449 57.9258 249.777 58.168 250.16 58.3398C250.551 58.5117 250.992 58.5977 251.484 58.5977C252.094 58.5977 252.66 58.4805 253.184 58.2461C253.715 58.0039 254.172 57.6406 254.555 57.1562L256.195 58.9375C255.93 59.3203 255.566 59.6875 255.105 60.0391C254.652 60.3906 254.105 60.6797 253.465 60.9062C252.824 61.125 252.094 61.2344 251.273 61.2344ZM265.254 57.4961C265.254 57.2539 265.184 57.0352 265.043 56.8398C264.902 56.6445 264.641 56.4648 264.258 56.3008C263.883 56.1289 263.34 55.9727 262.629 55.832C261.988 55.6914 261.391 55.5156 260.836 55.3047C260.289 55.0859 259.812 54.8242 259.406 54.5195C259.008 54.2148 258.695 53.8555 258.469 53.4414C258.242 53.0195 258.129 52.5391 258.129 52C258.129 51.4688 258.242 50.9688 258.469 50.5C258.703 50.0312 259.035 49.6172 259.465 49.2578C259.902 48.8906 260.434 48.6055 261.059 48.4023C261.691 48.1914 262.402 48.0859 263.191 48.0859C264.293 48.0859 265.238 48.2617 266.027 48.6133C266.824 48.9648 267.434 49.4492 267.855 50.0664C268.285 50.6758 268.5 51.3711 268.5 52.1523H265.125C265.125 51.8242 265.055 51.5312 264.914 51.2734C264.781 51.0078 264.57 50.8008 264.281 50.6523C264 50.4961 263.633 50.418 263.18 50.418C262.805 50.418 262.48 50.4844 262.207 50.6172C261.934 50.7422 261.723 50.9141 261.574 51.1328C261.434 51.3438 261.363 51.5781 261.363 51.8359C261.363 52.0312 261.402 52.207 261.48 52.3633C261.566 52.5117 261.703 52.6484 261.891 52.7734C262.078 52.8984 262.32 53.0156 262.617 53.125C262.922 53.2266 263.297 53.3203 263.742 53.4062C264.656 53.5938 265.473 53.8398 266.191 54.1445C266.91 54.4414 267.48 54.8477 267.902 55.3633C268.324 55.8711 268.535 56.5391 268.535 57.3672C268.535 57.9297 268.41 58.4453 268.16 58.9141C267.91 59.3828 267.551 59.793 267.082 60.1445C266.613 60.4883 266.051 60.7578 265.395 60.9531C264.746 61.1406 264.016 61.2344 263.203 61.2344C262.023 61.2344 261.023 61.0234 260.203 60.6016C259.391 60.1797 258.773 59.6445 258.352 58.9961C257.938 58.3398 257.73 57.668 257.73 56.9805H260.93C260.945 57.4414 261.062 57.8125 261.281 58.0938C261.508 58.375 261.793 58.5781 262.137 58.7031C262.488 58.8281 262.867 58.8906 263.273 58.8906C263.711 58.8906 264.074 58.832 264.363 58.7148C264.652 58.5898 264.871 58.4258 265.02 58.2227C265.176 58.0117 265.254 57.7695 265.254 57.4961Z" fill="#888888"/>
<path d="M113.18 109.93C113.18 109.398 113.102 108.922 112.945 108.5C112.789 108.062 112.5 107.656 112.078 107.281C111.656 106.906 111.047 106.531 110.25 106.156C109.469 105.766 108.438 105.359 107.156 104.938C105.656 104.438 104.211 103.875 102.82 103.25C101.43 102.609 100.188 101.867 99.0938 101.023C98 100.164 97.1328 99.1641 96.4922 98.0234C95.8516 96.8672 95.5312 95.5234 95.5312 93.9922C95.5312 92.5234 95.8594 91.2031 96.5156 90.0312C97.1719 88.8438 98.0859 87.8359 99.2578 87.0078C100.445 86.1641 101.836 85.5234 103.43 85.0859C105.023 84.6328 106.766 84.4062 108.656 84.4062C111.156 84.4062 113.359 84.8438 115.266 85.7188C117.188 86.5781 118.688 87.8047 119.766 89.3984C120.859 90.9766 121.406 92.8438 121.406 95H113.227C113.227 94.1406 113.047 93.3828 112.688 92.7266C112.344 92.0703 111.82 91.5547 111.117 91.1797C110.414 90.8047 109.531 90.6172 108.469 90.6172C107.438 90.6172 106.57 90.7734 105.867 91.0859C105.164 91.3984 104.633 91.8203 104.273 92.3516C103.914 92.8672 103.734 93.4375 103.734 94.0625C103.734 94.5781 103.875 95.0469 104.156 95.4688C104.453 95.875 104.867 96.2578 105.398 96.6172C105.945 96.9766 106.602 97.3203 107.367 97.6484C108.148 97.9766 109.023 98.2969 109.992 98.6094C111.805 99.1875 113.414 99.8359 114.82 100.555C116.242 101.258 117.438 102.062 118.406 102.969C119.391 103.859 120.133 104.875 120.633 106.016C121.148 107.156 121.406 108.445 121.406 109.883C121.406 111.414 121.109 112.773 120.516 113.961C119.922 115.148 119.07 116.156 117.961 116.984C116.852 117.797 115.523 118.414 113.977 118.836C112.43 119.258 110.703 119.469 108.797 119.469C107.047 119.469 105.32 119.25 103.617 118.812C101.93 118.359 100.398 117.672 99.0234 116.75C97.6484 115.812 96.5469 114.617 95.7188 113.164C94.9062 111.695 94.5 109.953 94.5 107.938H102.75C102.75 108.938 102.883 109.781 103.148 110.469C103.414 111.156 103.805 111.711 104.32 112.133C104.836 112.539 105.469 112.836 106.219 113.023C106.969 113.195 107.828 113.281 108.797 113.281C109.844 113.281 110.688 113.133 111.328 112.836C111.969 112.523 112.438 112.117 112.734 111.617C113.031 111.102 113.18 110.539 113.18 109.93ZM133.055 116.023L139.617 93.6406H148.102L137.906 122.773C137.688 123.414 137.398 124.102 137.039 124.836C136.68 125.586 136.188 126.297 135.562 126.969C134.938 127.641 134.133 128.188 133.148 128.609C132.18 129.031 130.977 129.242 129.539 129.242C128.773 129.242 128.211 129.203 127.852 129.125C127.508 129.062 126.977 128.945 126.258 128.773V123.125C126.461 123.125 126.633 123.125 126.773 123.125C126.93 123.125 127.102 123.125 127.289 123.125C128.133 123.125 128.805 123.039 129.305 122.867C129.82 122.695 130.211 122.445 130.477 122.117C130.758 121.789 130.977 121.391 131.133 120.922L133.055 116.023ZM131.391 93.6406L136.383 111.383L137.25 119.75H131.953L122.93 93.6406H131.391ZM163.453 111.875C163.453 111.438 163.305 111.062 163.008 110.75C162.727 110.422 162.227 110.125 161.508 109.859C160.789 109.578 159.781 109.297 158.484 109.016C157.25 108.75 156.086 108.398 154.992 107.961C153.914 107.523 152.969 106.992 152.156 106.367C151.344 105.742 150.703 105 150.234 104.141C149.781 103.281 149.555 102.297 149.555 101.188C149.555 100.109 149.781 99.0938 150.234 98.1406C150.703 97.1719 151.383 96.3203 152.273 95.5859C153.18 94.8359 154.281 94.25 155.578 93.8281C156.875 93.3906 158.352 93.1719 160.008 93.1719C162.289 93.1719 164.258 93.5234 165.914 94.2266C167.57 94.9141 168.844 95.8828 169.734 97.1328C170.641 98.3672 171.094 99.7969 171.094 101.422H163.195C163.195 100.781 163.086 100.234 162.867 99.7812C162.664 99.3281 162.328 98.9844 161.859 98.75C161.391 98.5 160.766 98.375 159.984 98.375C159.438 98.375 158.938 98.4766 158.484 98.6797C158.047 98.8828 157.695 99.1641 157.43 99.5234C157.164 99.8828 157.031 100.305 157.031 100.789C157.031 101.133 157.109 101.445 157.266 101.727C157.438 101.992 157.695 102.242 158.039 102.477C158.383 102.695 158.82 102.898 159.352 103.086C159.883 103.258 160.523 103.414 161.273 103.555C162.977 103.867 164.57 104.312 166.055 104.891C167.539 105.469 168.742 106.289 169.664 107.352C170.602 108.414 171.07 109.844 171.07 111.641C171.07 112.766 170.812 113.805 170.297 114.758C169.781 115.695 169.039 116.523 168.07 117.242C167.102 117.945 165.938 118.492 164.578 118.883C163.219 119.273 161.688 119.469 159.984 119.469C157.562 119.469 155.516 119.039 153.844 118.18C152.172 117.305 150.906 116.211 150.047 114.898C149.203 113.57 148.781 112.227 148.781 110.867H156.141C156.172 111.648 156.359 112.289 156.703 112.789C157.062 113.289 157.539 113.656 158.133 113.891C158.727 114.125 159.414 114.242 160.195 114.242C160.914 114.242 161.508 114.141 161.977 113.938C162.461 113.734 162.828 113.461 163.078 113.117C163.328 112.758 163.453 112.344 163.453 111.875ZM188.133 93.6406V99.125H172.852V93.6406H188.133ZM176.062 87.3359H183.961V110.727C183.961 111.398 184.039 111.922 184.195 112.297C184.352 112.656 184.617 112.914 184.992 113.07C185.383 113.211 185.898 113.281 186.539 113.281C186.992 113.281 187.367 113.273 187.664 113.258C187.961 113.227 188.242 113.188 188.508 113.141V118.789C187.836 119.008 187.133 119.172 186.398 119.281C185.664 119.406 184.883 119.469 184.055 119.469C182.367 119.469 180.922 119.203 179.719 118.672C178.531 118.141 177.625 117.305 177 116.164C176.375 115.023 176.062 113.539 176.062 111.711V87.3359ZM203.555 119.469C201.492 119.469 199.648 119.148 198.023 118.508C196.398 117.852 195.023 116.953 193.898 115.812C192.789 114.672 191.938 113.359 191.344 111.875C190.766 110.391 190.477 108.82 190.477 107.164V106.273C190.477 104.414 190.734 102.695 191.25 101.117C191.766 99.5234 192.531 98.1328 193.547 96.9453C194.562 95.7578 195.836 94.8359 197.367 94.1797C198.898 93.5078 200.68 93.1719 202.711 93.1719C204.508 93.1719 206.117 93.4609 207.539 94.0391C208.961 94.6172 210.164 95.4453 211.148 96.5234C212.148 97.6016 212.906 98.9062 213.422 100.438C213.953 101.969 214.219 103.688 214.219 105.594V108.805H193.5V103.859H206.508V103.25C206.523 102.406 206.375 101.688 206.062 101.094C205.766 100.5 205.328 100.047 204.75 99.7344C204.172 99.4219 203.469 99.2656 202.641 99.2656C201.781 99.2656 201.07 99.4531 200.508 99.8281C199.961 100.203 199.531 100.719 199.219 101.375C198.922 102.016 198.711 102.758 198.586 103.602C198.461 104.445 198.398 105.336 198.398 106.273V107.164C198.398 108.102 198.523 108.953 198.773 109.719C199.039 110.484 199.414 111.141 199.898 111.688C200.398 112.219 200.992 112.633 201.68 112.93C202.383 113.227 203.18 113.375 204.07 113.375C205.148 113.375 206.211 113.172 207.258 112.766C208.305 112.359 209.203 111.688 209.953 110.75L213.539 115.016C213.023 115.75 212.289 116.461 211.336 117.148C210.398 117.836 209.273 118.398 207.961 118.836C206.648 119.258 205.18 119.469 203.555 119.469ZM225.398 99.0078V119H217.5V93.6406H224.906L225.398 99.0078ZM224.438 105.453L222.633 105.5C222.633 103.719 222.844 102.078 223.266 100.578C223.688 99.0781 224.312 97.7734 225.141 96.6641C225.969 95.5547 226.984 94.6953 228.188 94.0859C229.406 93.4766 230.812 93.1719 232.406 93.1719C233.516 93.1719 234.523 93.3438 235.43 93.6875C236.336 94.0156 237.117 94.5391 237.773 95.2578C238.43 95.9609 238.93 96.8828 239.273 98.0234C239.633 99.1484 239.812 100.5 239.812 102.078V119H231.914V103.086C231.914 102.008 231.789 101.195 231.539 100.648C231.305 100.102 230.961 99.7344 230.508 99.5469C230.055 99.3594 229.5 99.2656 228.844 99.2656C228.156 99.2656 227.539 99.4219 226.992 99.7344C226.445 100.047 225.977 100.484 225.586 101.047C225.211 101.594 224.922 102.242 224.719 102.992C224.531 103.742 224.438 104.562 224.438 105.453ZM238.922 105.453L236.719 105.5C236.719 103.719 236.914 102.078 237.305 100.578C237.711 99.0781 238.312 97.7734 239.109 96.6641C239.922 95.5547 240.93 94.6953 242.133 94.0859C243.336 93.4766 244.734 93.1719 246.328 93.1719C247.484 93.1719 248.547 93.3438 249.516 93.6875C250.484 94.0312 251.32 94.5859 252.023 95.3516C252.727 96.1172 253.273 97.1328 253.664 98.3984C254.055 99.6484 254.25 101.195 254.25 103.039V119H246.328V103.039C246.328 101.992 246.203 101.203 245.953 100.672C245.719 100.125 245.375 99.7578 244.922 99.5703C244.469 99.3672 243.93 99.2656 243.305 99.2656C242.555 99.2656 241.906 99.4219 241.359 99.7344C240.812 100.047 240.352 100.484 239.977 101.047C239.617 101.594 239.352 102.242 239.18 102.992C239.008 103.742 238.922 104.562 238.922 105.453ZM282.188 119H274.617L274.664 112.672H282.188C283.75 112.672 285.07 112.297 286.148 111.547C287.242 110.797 288.07 109.68 288.633 108.195C289.211 106.695 289.5 104.852 289.5 102.664V101.188C289.5 99.5469 289.336 98.1094 289.008 96.875C288.695 95.625 288.227 94.5859 287.602 93.7578C286.977 92.9141 286.195 92.2812 285.258 91.8594C284.336 91.4375 283.273 91.2266 282.07 91.2266H274.477V84.875H282.07C284.383 84.875 286.5 85.2734 288.422 86.0703C290.359 86.8516 292.031 87.9766 293.438 89.4453C294.859 90.8984 295.953 92.625 296.719 94.625C297.5 96.6094 297.891 98.8125 297.891 101.234V102.664C297.891 105.07 297.5 107.273 296.719 109.273C295.953 111.273 294.867 113 293.461 114.453C292.055 115.906 290.391 117.031 288.469 117.828C286.562 118.609 284.469 119 282.188 119ZM279.328 84.875V119H271.102V84.875H279.328ZM314.086 119.469C312.023 119.469 310.18 119.148 308.555 118.508C306.93 117.852 305.555 116.953 304.43 115.812C303.32 114.672 302.469 113.359 301.875 111.875C301.297 110.391 301.008 108.82 301.008 107.164V106.273C301.008 104.414 301.266 102.695 301.781 101.117C302.297 99.5234 303.062 98.1328 304.078 96.9453C305.094 95.7578 306.367 94.8359 307.898 94.1797C309.43 93.5078 311.211 93.1719 313.242 93.1719C315.039 93.1719 316.648 93.4609 318.07 94.0391C319.492 94.6172 320.695 95.4453 321.68 96.5234C322.68 97.6016 323.438 98.9062 323.953 100.438C324.484 101.969 324.75 103.688 324.75 105.594V108.805H304.031V103.859H317.039V103.25C317.055 102.406 316.906 101.688 316.594 101.094C316.297 100.5 315.859 100.047 315.281 99.7344C314.703 99.4219 314 99.2656 313.172 99.2656C312.312 99.2656 311.602 99.4531 311.039 99.8281C310.492 100.203 310.062 100.719 309.75 101.375C309.453 102.016 309.242 102.758 309.117 103.602C308.992 104.445 308.93 105.336 308.93 106.273V107.164C308.93 108.102 309.055 108.953 309.305 109.719C309.57 110.484 309.945 111.141 310.43 111.688C310.93 112.219 311.523 112.633 312.211 112.93C312.914 113.227 313.711 113.375 314.602 113.375C315.68 113.375 316.742 113.172 317.789 112.766C318.836 112.359 319.734 111.688 320.484 110.75L324.07 115.016C323.555 115.75 322.82 116.461 321.867 117.148C320.93 117.836 319.805 118.398 318.492 118.836C317.18 119.258 315.711 119.469 314.086 119.469ZM341.25 111.875C341.25 111.438 341.102 111.062 340.805 110.75C340.523 110.422 340.023 110.125 339.305 109.859C338.586 109.578 337.578 109.297 336.281 109.016C335.047 108.75 333.883 108.398 332.789 107.961C331.711 107.523 330.766 106.992 329.953 106.367C329.141 105.742 328.5 105 328.031 104.141C327.578 103.281 327.352 102.297 327.352 101.188C327.352 100.109 327.578 99.0938 328.031 98.1406C328.5 97.1719 329.18 96.3203 330.07 95.5859C330.977 94.8359 332.078 94.25 333.375 93.8281C334.672 93.3906 336.148 93.1719 337.805 93.1719C340.086 93.1719 342.055 93.5234 343.711 94.2266C345.367 94.9141 346.641 95.8828 347.531 97.1328C348.438 98.3672 348.891 99.7969 348.891 101.422H340.992C340.992 100.781 340.883 100.234 340.664 99.7812C340.461 99.3281 340.125 98.9844 339.656 98.75C339.188 98.5 338.562 98.375 337.781 98.375C337.234 98.375 336.734 98.4766 336.281 98.6797C335.844 98.8828 335.492 99.1641 335.227 99.5234C334.961 99.8828 334.828 100.305 334.828 100.789C334.828 101.133 334.906 101.445 335.062 101.727C335.234 101.992 335.492 102.242 335.836 102.477C336.18 102.695 336.617 102.898 337.148 103.086C337.68 103.258 338.32 103.414 339.07 103.555C340.773 103.867 342.367 104.312 343.852 104.891C345.336 105.469 346.539 106.289 347.461 107.352C348.398 108.414 348.867 109.844 348.867 111.641C348.867 112.766 348.609 113.805 348.094 114.758C347.578 115.695 346.836 116.523 345.867 117.242C344.898 117.945 343.734 118.492 342.375 118.883C341.016 119.273 339.484 119.469 337.781 119.469C335.359 119.469 333.312 119.039 331.641 118.18C329.969 117.305 328.703 116.211 327.844 114.898C327 113.57 326.578 112.227 326.578 110.867H333.938C333.969 111.648 334.156 112.289 334.5 112.789C334.859 113.289 335.336 113.656 335.93 113.891C336.523 114.125 337.211 114.242 337.992 114.242C338.711 114.242 339.305 114.141 339.773 113.938C340.258 113.734 340.625 113.461 340.875 113.117C341.125 112.758 341.25 112.344 341.25 111.875ZM360.914 93.6406V119H352.992V93.6406H360.914ZM352.523 87.1016C352.523 85.9766 352.93 85.0547 353.742 84.3359C354.555 83.6172 355.609 83.2578 356.906 83.2578C358.203 83.2578 359.258 83.6172 360.07 84.3359C360.883 85.0547 361.289 85.9766 361.289 87.1016C361.289 88.2266 360.883 89.1484 360.07 89.8672C359.258 90.5859 358.203 90.9453 356.906 90.9453C355.609 90.9453 354.555 90.5859 353.742 89.8672C352.93 89.1484 352.523 88.2266 352.523 87.1016ZM381.727 93.6406H388.898V118.016C388.898 120.359 388.359 122.344 387.281 123.969C386.203 125.609 384.695 126.852 382.758 127.695C380.836 128.555 378.586 128.984 376.008 128.984C374.867 128.984 373.703 128.836 372.516 128.539C371.328 128.258 370.219 127.836 369.188 127.273C368.156 126.711 367.289 126.016 366.586 125.188L369.891 120.547C370.531 121.266 371.336 121.875 372.305 122.375C373.273 122.891 374.414 123.148 375.727 123.148C376.867 123.148 377.82 122.945 378.586 122.539C379.367 122.133 379.961 121.539 380.367 120.758C380.773 119.992 380.977 119.062 380.977 117.969V99.6406L381.727 93.6406ZM364.875 106.625V106.133C364.875 104.211 365.109 102.461 365.578 100.883C366.062 99.2891 366.75 97.9219 367.641 96.7812C368.547 95.625 369.641 94.7344 370.922 94.1094C372.203 93.4844 373.648 93.1719 375.258 93.1719C376.992 93.1719 378.414 93.5078 379.523 94.1797C380.648 94.8359 381.547 95.7578 382.219 96.9453C382.906 98.1328 383.438 99.5234 383.812 101.117C384.203 102.695 384.531 104.398 384.797 106.227V106.812C384.531 108.531 384.164 110.156 383.695 111.688C383.242 113.203 382.648 114.547 381.914 115.719C381.18 116.891 380.258 117.812 379.148 118.484C378.055 119.141 376.742 119.469 375.211 119.469C373.617 119.469 372.18 119.148 370.898 118.508C369.633 117.867 368.547 116.969 367.641 115.812C366.75 114.656 366.062 113.297 365.578 111.734C365.109 110.172 364.875 108.469 364.875 106.625ZM372.773 106.133V106.625C372.773 107.578 372.859 108.461 373.031 109.273C373.219 110.086 373.5 110.805 373.875 111.43C374.25 112.039 374.711 112.516 375.258 112.859C375.82 113.203 376.477 113.375 377.227 113.375C378.367 113.375 379.289 113.133 379.992 112.648C380.695 112.164 381.203 111.477 381.516 110.586C381.828 109.695 381.961 108.648 381.914 107.445V105.594C381.945 104.562 381.875 103.656 381.703 102.875C381.531 102.078 381.258 101.414 380.883 100.883C380.523 100.352 380.039 99.9531 379.43 99.6875C378.836 99.4062 378.117 99.2656 377.273 99.2656C376.539 99.2656 375.891 99.4375 375.328 99.7812C374.766 100.125 374.297 100.609 373.922 101.234C373.547 101.844 373.258 102.57 373.055 103.414C372.867 104.242 372.773 105.148 372.773 106.133ZM401.203 99.0547V119H393.305V93.6406H400.711L401.203 99.0547ZM400.266 105.453L398.414 105.5C398.414 103.562 398.648 101.836 399.117 100.32C399.586 98.7891 400.25 97.4922 401.109 96.4297C401.969 95.3672 402.992 94.5625 404.18 94.0156C405.383 93.4531 406.719 93.1719 408.188 93.1719C409.359 93.1719 410.43 93.3438 411.398 93.6875C412.383 94.0312 413.227 94.5859 413.93 95.3516C414.648 96.1172 415.195 97.1328 415.57 98.3984C415.961 99.6484 416.156 101.195 416.156 103.039V119H408.211V103.016C408.211 102 408.07 101.227 407.789 100.695C407.508 100.148 407.102 99.7734 406.57 99.5703C406.039 99.3672 405.391 99.2656 404.625 99.2656C403.812 99.2656 403.125 99.4219 402.562 99.7344C402 100.047 401.547 100.484 401.203 101.047C400.875 101.594 400.633 102.242 400.477 102.992C400.336 103.742 400.266 104.562 400.266 105.453Z" fill="black"/>
<path d="M1134 0H1348C1356.28 0 1363 6.71573 1363 15V148C1363 156.284 1356.28 163 1348 163H1134V0Z" fill="#1EA17F" fill-opacity="0.933333"/>
<path d="M1248.5 51.6667C1257.07 51.6667 1264.74 52.9907 1270.29 55.1784C1273.06 56.2717 1275.33 57.5902 1276.91 59.0895C1278.49 60.591 1279.42 62.3052 1279.42 64.1667C1279.42 66.0281 1278.49 67.7423 1276.91 69.2438C1275.33 70.7432 1273.06 72.0616 1270.29 73.1549C1264.74 75.3426 1257.07 76.6666 1248.5 76.6667C1239.93 76.6667 1232.26 75.3427 1226.71 73.1549C1223.94 72.0616 1221.67 70.7432 1220.09 69.2438C1218.51 67.7423 1217.58 66.0281 1217.58 64.1667C1217.58 62.3052 1218.51 60.591 1220.09 59.0895C1221.67 57.5901 1223.94 56.2717 1226.71 55.1784C1232.26 52.9906 1239.93 51.6667 1248.5 51.6667ZM1248.5 55.3337C1242.07 55.3337 1235.28 56.2867 1230.11 57.9147C1227.52 58.7295 1225.37 59.7039 1223.88 60.7917C1222.37 61.8873 1221.63 63.0283 1221.63 64.1667C1221.63 65.305 1222.37 66.446 1223.88 67.5417C1225.37 68.6295 1227.52 69.6039 1230.11 70.4186C1235.28 72.0466 1242.07 72.9997 1248.5 72.9997C1254.93 72.9996 1261.72 72.0466 1266.89 70.4186C1269.48 69.6038 1271.63 68.6296 1273.12 67.5417C1274.63 66.446 1275.38 65.305 1275.38 64.1667C1275.38 63.0283 1274.63 61.8873 1273.12 60.7917C1271.63 59.7037 1269.48 58.7296 1266.89 57.9147C1261.72 56.2868 1254.93 55.3337 1248.5 55.3337Z" fill="white" stroke="white"/>
<path d="M1277.4 62.3333C1277.91 62.3333 1278.42 62.5126 1278.8 62.848C1279.19 63.1851 1279.42 63.6575 1279.42 64.1663V74.8333C1279.42 76.6948 1278.49 78.409 1276.91 79.9105C1275.33 81.4099 1273.06 82.7283 1270.29 83.8216C1264.74 86.0093 1257.07 87.3333 1248.5 87.3333C1239.93 87.3333 1232.26 86.0094 1226.71 83.8216C1223.94 82.7283 1221.67 81.4099 1220.09 79.9105C1218.51 78.409 1217.58 76.6948 1217.58 74.8333V64.1663C1217.58 63.6574 1217.81 63.1851 1218.2 62.848C1218.58 62.5128 1219.09 62.3334 1219.6 62.3333C1220.12 62.3333 1220.63 62.5126 1221.01 62.848C1221.39 63.1851 1221.63 63.6574 1221.63 64.1663V74.8333C1221.63 75.9717 1222.37 77.1127 1223.88 78.2083C1225.37 79.2961 1227.52 80.2705 1230.11 81.0853C1235.28 82.7133 1242.07 83.6663 1248.5 83.6663C1254.93 83.6663 1261.72 82.7132 1266.89 81.0853C1269.48 80.2704 1271.63 79.2963 1273.12 78.2083C1274.63 77.1127 1275.38 75.9717 1275.38 74.8333V64.1663C1275.38 63.6575 1275.61 63.1851 1275.99 62.848C1276.37 62.5126 1276.88 62.3333 1277.4 62.3333Z" fill="white" stroke="white"/>
<path d="M1277.4 73C1277.91 73 1278.42 73.1793 1278.8 73.5146C1279.19 73.8518 1279.42 74.3242 1279.42 74.833V86.833C1279.42 88.6945 1278.49 90.4086 1276.91 91.9102C1275.33 93.4096 1273.06 94.7289 1270.29 95.8223C1264.74 98.0099 1257.07 99.333 1248.5 99.333C1239.93 99.333 1232.26 98.01 1226.71 95.8223C1223.94 94.7289 1221.67 93.4096 1220.09 91.9102C1218.51 90.4087 1217.58 88.6944 1217.58 86.833V74.833L1217.59 74.6445C1217.64 74.2084 1217.86 73.8097 1218.2 73.5146C1218.58 73.1795 1219.09 73.0001 1219.6 73C1220.12 73 1220.63 73.1793 1221.01 73.5146C1221.39 73.8518 1221.63 74.3241 1221.63 74.833V86.833C1221.63 87.9713 1222.37 89.1123 1223.88 90.208C1225.37 91.2959 1227.52 92.2711 1230.11 93.0859C1235.28 94.7139 1242.07 95.667 1248.5 95.667C1254.93 95.667 1261.72 94.7139 1266.89 93.0859C1269.48 92.2711 1271.63 91.296 1273.12 90.208C1274.63 89.1124 1275.38 87.9713 1275.38 86.833V74.833C1275.38 74.3242 1275.61 73.8518 1275.99 73.5146C1276.37 73.1793 1276.88 73 1277.4 73Z" fill="white" stroke="white"/>
<path d="M1277.4 85C1277.91 85 1278.42 85.1793 1278.8 85.5146C1279.19 85.8518 1279.42 86.3242 1279.42 86.833V98.833C1279.42 100.694 1278.49 102.409 1276.91 103.91C1275.33 105.41 1273.06 106.729 1270.29 107.822C1264.74 110.01 1257.07 111.333 1248.5 111.333C1239.93 111.333 1232.26 110.01 1226.71 107.822C1223.94 106.729 1221.67 105.41 1220.09 103.91C1218.51 102.409 1217.58 100.694 1217.58 98.833V86.833L1217.59 86.6445C1217.64 86.2084 1217.86 85.8097 1218.2 85.5146C1218.58 85.1795 1219.09 85.0001 1219.6 85C1220.12 85 1220.63 85.1793 1221.01 85.5146C1221.39 85.8518 1221.63 86.3241 1221.63 86.833V98.833C1221.63 99.9713 1222.37 101.112 1223.88 102.208C1225.37 103.296 1227.52 104.271 1230.11 105.086C1235.28 106.714 1242.07 107.667 1248.5 107.667C1254.93 107.667 1261.72 106.714 1266.89 105.086C1269.48 104.271 1271.63 103.296 1273.12 102.208C1274.63 101.112 1275.38 99.9713 1275.38 98.833V86.833C1275.38 86.3242 1275.61 85.8518 1275.99 85.5146C1276.37 85.1793 1276.88 85 1277.4 85Z" fill="white" stroke="white"/>
</svg>
